<?xml version="1.0" encoding="UTF-8" standalone="no"?>
<svg
   xmlns:dc="http://purl.org/dc/elements/1.1/"
   xmlns:cc="http://creativecommons.org/ns#"
   xmlns:rdf="http://www.w3.org/1999/02/22-rdf-syntax-ns#"
   xmlns:svg="http://www.w3.org/2000/svg"
   xmlns="http://www.w3.org/2000/svg"
   xmlns:xlink="http://www.w3.org/1999/xlink"
   xmlns:sodipodi="http://sodipodi.sourceforge.net/DTD/sodipodi-0.dtd"
   xmlns:inkscape="http://www.inkscape.org/namespaces/inkscape"
   inkscape:version="1.0 (6e3e5246a0, 2020-05-07)"
   sodipodi:docname="hypo1.svg"
   id="svg360"
   width="405.48874pt"
   viewBox="0 0 405.48875 310.31603"
   version="1.1"
   height="310.31604pt">
  <metadata
     id="metadata364">
    <rdf:RDF>
      <cc:Work
         rdf:about="">
        <dc:format>image/svg+xml</dc:format>
        <dc:type
           rdf:resource="http://purl.org/dc/dcmitype/StillImage" />
        <dc:title></dc:title>
      </cc:Work>
    </rdf:RDF>
  </metadata>
  <sodipodi:namedview
     inkscape:current-layer="axes_1"
     inkscape:window-maximized="1"
     inkscape:window-y="27"
     inkscape:window-x="0"
     inkscape:cy="207.75211"
     inkscape:cx="140.18587"
     inkscape:zoom="0.90536674"
     fit-margin-bottom="0"
     fit-margin-right="0"
     fit-margin-left="0"
     fit-margin-top="0"
     showgrid="false"
     id="namedview362"
     inkscape:window-height="746"
     inkscape:window-width="1440"
     inkscape:pageshadow="2"
     inkscape:pageopacity="0"
     guidetolerance="10"
     gridtolerance="10"
     objecttolerance="10"
     borderopacity="1"
     bordercolor="#666666"
     pagecolor="#ffffff" />
  <defs
     id="defs4">
    <style
       id="style2"
       type="text/css">
*{stroke-linecap:butt;stroke-linejoin:round;}
  </style>
  </defs>
  <g
     transform="translate(-12.144189,-18.81105)"
     id="figure_1">
    <g
       id="patch_1" />
    <g
       transform="translate(2.5129388,-6.8756567)"
       id="axes_1">
      <text
         inkscape:export-ydpi="200"
         inkscape:export-xdpi="200"
         id="text368-7"
         y="36.323425"
         x="135.48639"
         style="font-style:normal;font-weight:normal;font-size:30px;line-height:1.25;font-family:sans-serif;fill:#000000;fill-opacity:1;stroke:none;stroke-width:0.75;stroke-linecap:butt;stroke-linejoin:round"
         xml:space="preserve"><tspan
           style="font-size:14px;stroke-width:0.75"
           y="36.323425"
           x="135.48639"
           id="tspan366-5"
           sodipodi:role="line">Human Learns from <tspan
   style="font-style:italic"
   id="tspan421">Success</tspan></tspan></text>
      <text
         inkscape:export-ydpi="200"
         inkscape:export-xdpi="200"
         xml:space="preserve"
         style="font-style:normal;font-weight:normal;font-size:30px;line-height:1.25;font-family:sans-serif;fill:#000000;fill-opacity:1;stroke:none;stroke-width:0.75"
         x="247.81625"
         y="231.52985"
         id="text368"><tspan
           sodipodi:role="line"
           id="tspan366"
           x="247.81625"
           y="231.52985"
           style="font-size:14px;stroke-width:0.75"><tspan
   style="font-style:italic"
   id="tspan390">full</tspan> shared autonomy</tspan></text>
      <text
         inkscape:export-ydpi="200"
         inkscape:export-xdpi="200"
         id="text368-3"
         y="262.18585"
         x="248.52719"
         style="font-style:normal;font-weight:normal;font-size:30px;line-height:1.25;font-family:sans-serif;fill:#000000;fill-opacity:1;stroke:none;stroke-width:0.75;stroke-linecap:butt;stroke-linejoin:round"
         xml:space="preserve"><tspan
           style="font-size:14px;stroke-width:0.75"
           y="262.18585"
           x="248.52719"
           id="tspan366-6"
           sodipodi:role="line"><tspan
   style="font-style:italic"
   id="tspan388">some</tspan> shared autonomy</tspan></text>
      <g
         inkscape:export-ydpi="200"
         inkscape:export-xdpi="200"
         id="PolyCollection_1">
        <path
           id="path12"
           style="fill:#1f77b4"
           d="m 73.832727,202.53583 v 14.22932 l 81.163633,-44.56961 81.16364,-17.16253 81.16364,-15.24977 81.16363,-20.7975 v -10.46255 0 l -81.16363,21.17903 -81.16364,14.5444 -81.16364,18.89164 z"
           clip-path="url(#p62cf1087b1)" />
      </g>
      <g
         inkscape:export-ydpi="200"
         inkscape:export-xdpi="200"
         id="PolyCollection_2">
        <path
           id="path15"
           style="fill:#ff7f0e"
           d="M 73.832727,257.37488 V 295.488 L 154.99636,130.49796 236.16,93.509278 317.32364,70.829607 398.48727,58.901885 V 53.568 v 0 L 317.32364,64.628092 236.16,86.958776 154.99636,121.36262 Z"
           clip-path="url(#p62cf1087b1)" />
      </g>
      <g
         inkscape:export-ydpi="200"
         inkscape:export-xdpi="200"
         id="matplotlib.axis_1">
        <g
           id="xtick_1">
          <g
             id="line2d_1">
            <defs
               id="defs19">
              <path
                 style="stroke:#000000;stroke-width:0.8"
                 id="m2ee7fde9cd"
                 d="M 0,0 V 3.5" />
            </defs>
            <g
               id="g23">
              <use
                 height="100%"
                 width="100%"
                 id="use21"
                 y="307.58401"
                 xlink:href="#m2ee7fde9cd"
                 x="73.832726"
                 style="stroke:#000000;stroke-width:0.8" />
            </g>
          </g>
          <g
             id="text_1">
            <!-- 0 -->
            <defs
               id="defs27">
              <path
                 id="DejaVuSans-48"
                 d="m 31.78125,66.40625 q -7.609375,0 -11.453125,-7.5 Q 16.5,51.421875 16.5,36.375 q 0,-14.984375 3.828125,-22.484375 3.84375,-7.5 11.453125,-7.5 7.671875,0 11.5,7.5 3.84375,7.5 3.84375,22.484375 0,15.046875 -3.84375,22.53125 -3.828125,7.5 -11.5,7.5 z m 0,7.8125 q 12.265625,0 18.734375,-9.703125 6.46875,-9.6875 6.46875,-28.140625 0,-18.40625 -6.46875,-28.109375 -6.46875,-9.6875 -18.734375,-9.6875 -12.25,0 -18.71875,9.6875 Q 6.59375,17.96875 6.59375,36.375 q 0,18.453125 6.46875,28.140625 6.46875,9.703125 18.71875,9.703125 z" />
            </defs>
            <g
               id="g31"
               transform="matrix(0.1,0,0,-0.1,70.651477,322.18244)">
              <use
                 height="100%"
                 width="100%"
                 y="0"
                 x="0"
                 id="use29"
                 xlink:href="#DejaVuSans-48" />
            </g>
          </g>
        </g>
        <g
           id="xtick_2">
          <g
             id="line2d_2">
            <g
               id="g37">
              <use
                 height="100%"
                 width="100%"
                 id="use35"
                 y="307.58401"
                 xlink:href="#m2ee7fde9cd"
                 x="154.99637"
                 style="stroke:#000000;stroke-width:0.8" />
            </g>
          </g>
          <g
             id="text_2">
            <!-- 1 -->
            <defs
               id="defs41">
              <path
                 id="DejaVuSans-49"
                 d="m 12.40625,8.296875 h 16.109375 v 55.625 L 10.984375,60.40625 v 8.984375 l 17.4375,3.515625 H 38.28125 V 8.296875 H 54.390625 V 0 H 12.40625 Z" />
            </defs>
            <g
               id="g45"
               transform="matrix(0.1,0,0,-0.1,151.81511,322.18244)">
              <use
                 height="100%"
                 width="100%"
                 y="0"
                 x="0"
                 id="use43"
                 xlink:href="#DejaVuSans-49" />
            </g>
          </g>
        </g>
        <g
           id="xtick_3">
          <g
             id="line2d_3">
            <g
               id="g51">
              <use
                 height="100%"
                 width="100%"
                 id="use49"
                 y="307.58401"
                 xlink:href="#m2ee7fde9cd"
                 x="236.16"
                 style="stroke:#000000;stroke-width:0.8" />
            </g>
          </g>
          <g
             id="text_3">
            <!-- 2 -->
            <defs
               id="defs55">
              <path
                 id="DejaVuSans-50"
                 d="M 19.1875,8.296875 H 53.609375 V 0 H 7.328125 v 8.296875 q 5.609375,5.8125 15.296875,15.59375 9.703125,9.796875 12.1875,12.640625 4.734375,5.3125 6.609375,9 1.890625,3.6875 1.890625,7.25 0,5.8125 -4.078125,9.46875 -4.078125,3.671875 -10.625,3.671875 -4.640625,0 -9.796875,-1.609375 -5.140625,-1.609375 -11,-4.890625 v 9.96875 Q 13.765625,71.78125 18.9375,73 q 5.1875,1.21875 9.484375,1.21875 11.328125,0 18.0625,-5.671875 6.734375,-5.65625 6.734375,-15.125 0,-4.5 -1.6875,-8.53125 Q 49.859375,40.875 45.40625,35.40625 44.1875,33.984375 37.640625,27.21875 31.109375,20.453125 19.1875,8.296875 Z" />
            </defs>
            <g
               id="g59"
               transform="matrix(0.1,0,0,-0.1,232.97875,322.18244)">
              <use
                 height="100%"
                 width="100%"
                 y="0"
                 x="0"
                 id="use57"
                 xlink:href="#DejaVuSans-50" />
            </g>
          </g>
        </g>
        <g
           id="xtick_4">
          <g
             id="line2d_4">
            <g
               id="g65">
              <use
                 height="100%"
                 width="100%"
                 id="use63"
                 y="307.58401"
                 xlink:href="#m2ee7fde9cd"
                 x="317.32364"
                 style="stroke:#000000;stroke-width:0.8" />
            </g>
          </g>
          <g
             id="text_4">
            <!-- 3 -->
            <defs
               id="defs69">
              <path
                 id="DejaVuSans-51"
                 d="M 40.578125,39.3125 Q 47.65625,37.796875 51.625,33 q 3.984375,-4.78125 3.984375,-11.8125 0,-10.78125 -7.421875,-16.703125 -7.421875,-5.90625 -21.09375,-5.90625 -4.578125,0 -9.4375,0.90625 -4.859375,0.90625 -10.03125,2.71875 v 9.515625 q 4.09375,-2.390625 8.96875,-3.609375 4.890625,-1.21875 10.21875,-1.21875 9.265625,0 14.125,3.65625 4.859375,3.65625 4.859375,10.640625 0,6.453125 -4.515625,10.078125 -4.515625,3.640625 -12.5625,3.640625 h -8.5 v 8.109375 h 8.890625 q 7.265625,0 11.125,2.90625 3.859375,2.90625 3.859375,8.375 0,5.609375 -3.984375,8.609375 -3.96875,3.015625 -11.390625,3.015625 -4.0625,0 -8.703125,-0.890625 Q 15.375,64.15625 9.8125,62.3125 v 8.78125 q 5.625,1.5625 10.53125,2.34375 4.90625,0.78125 9.25,0.78125 11.234375,0 17.765625,-5.109375 6.546875,-5.09375 6.546875,-13.78125 0,-6.0625 -3.46875,-10.234375 -3.46875,-4.171875 -9.859375,-5.78125 z" />
            </defs>
            <g
               id="g73"
               transform="matrix(0.1,0,0,-0.1,314.14239,322.18244)">
              <use
                 height="100%"
                 width="100%"
                 y="0"
                 x="0"
                 id="use71"
                 xlink:href="#DejaVuSans-51" />
            </g>
          </g>
        </g>
        <g
           id="xtick_5">
          <g
             id="line2d_5">
            <g
               id="g79">
              <use
                 height="100%"
                 width="100%"
                 id="use77"
                 y="307.58401"
                 xlink:href="#m2ee7fde9cd"
                 x="398.48727"
                 style="stroke:#000000;stroke-width:0.8" />
            </g>
          </g>
          <g
             id="text_5">
            <!-- 4 -->
            <defs
               id="defs83">
              <path
                 id="DejaVuSans-52"
                 d="M 37.796875,64.3125 12.890625,25.390625 h 24.90625 z m -2.59375,8.59375 h 12.40625 V 25.390625 h 10.40625 V 17.1875 H 47.609375 V 0 h -9.8125 V 17.1875 H 4.890625 v 9.515625 z" />
            </defs>
            <g
               id="g87"
               transform="matrix(0.1,0,0,-0.1,395.30602,322.18244)">
              <use
                 height="100%"
                 width="100%"
                 y="0"
                 x="0"
                 id="use85"
                 xlink:href="#DejaVuSans-52" />
            </g>
          </g>
        </g>
        <g
           id="text_6">
          <!-- Iteration # -->
          <defs
             id="defs101">
            <path
               id="DejaVuSans-73"
               d="m 9.8125,72.90625 h 9.859375 V 0 H 9.8125 Z" />
            <path
               id="DejaVuSans-116"
               d="M 18.3125,70.21875 V 54.6875 h 18.5 v -6.984375 h -18.5 v -29.6875 q 0,-6.6875 1.828125,-8.59375 1.828125,-1.90625 7.453125,-1.90625 H 36.8125 V 0 H 27.59375 Q 17.1875,0 13.234375,3.875 9.28125,7.765625 9.28125,18.015625 v 29.6875 H 2.6875 V 54.6875 h 6.59375 v 15.53125 z" />
            <path
               id="DejaVuSans-101"
               d="m 56.203125,29.59375 v -4.390625 h -41.3125 q 0.59375,-9.28125 5.59375,-14.140625 5,-4.859375 13.9375,-4.859375 5.171875,0 10.03125,1.265625 4.859375,1.265625 9.65625,3.8125 v -8.5 q -4.84375,-2.046875 -9.921875,-3.125 -5.078125,-1.078125 -10.296875,-1.078125 -13.09375,0 -20.734375,7.609375 -7.640625,7.625 -7.640625,20.625 0,13.421875 7.25,21.296875 Q 20.015625,56 32.328125,56 q 11.03125,0 17.453125,-7.109375 6.421875,-7.09375 6.421875,-19.296875 z m -8.984375,2.640625 q -0.09375,7.359375 -4.125,11.75 -4.03125,4.40625 -10.671875,4.40625 -7.515625,0 -12.03125,-4.25 -4.515625,-4.25 -5.203125,-11.96875 z" />
            <path
               id="DejaVuSans-114"
               d="m 41.109375,46.296875 q -1.515625,0.875 -3.296875,1.28125 Q 36.03125,48 33.890625,48 26.265625,48 22.1875,43.046875 18.109375,38.09375 18.109375,28.8125 V 0 h -9.03125 v 54.6875 h 9.03125 v -8.5 q 2.84375,4.984375 7.375,7.390625 Q 30.03125,56 36.53125,56 q 0.921875,0 2.046875,-0.125 1.125,-0.109375 2.484375,-0.359375 z" />
            <path
               id="DejaVuSans-97"
               d="m 34.28125,27.484375 q -10.890625,0 -15.09375,-2.484375 -4.203125,-2.484375 -4.203125,-8.5 0,-4.78125 3.15625,-7.59375 3.15625,-2.796875 8.5625,-2.796875 7.484375,0 12,5.296875 4.515625,5.296875 4.515625,14.078125 v 2 z m 17.921875,3.71875 V 0 H 43.21875 v 8.296875 q -3.078125,-4.96875 -7.671875,-7.34375 -4.59375,-2.375 -11.234375,-2.375 -8.390625,0 -13.359375,4.71875 Q 6,8.015625 6,15.921875 q 0,9.21875 6.171875,13.90625 6.1875,4.6875 18.4375,4.6875 H 43.21875 v 0.890625 q 0,6.203125 -4.078125,9.59375 -4.078125,3.390625 -11.453125,3.390625 -4.6875,0 -9.140625,-1.125 -4.4375,-1.125 -8.53125,-3.375 v 8.3125 q 4.921875,1.90625 9.5625,2.84375 Q 24.21875,56 28.609375,56 q 11.875,0 17.734375,-6.15625 5.859375,-6.140625 5.859375,-18.640625 z" />
            <path
               id="DejaVuSans-105"
               d="M 9.421875,54.6875 H 18.40625 V 0 H 9.421875 Z m 0,21.296875 H 18.40625 V 64.59375 H 9.421875 Z" />
            <path
               id="DejaVuSans-111"
               d="m 30.609375,48.390625 q -7.21875,0 -11.421875,-5.640625 -4.203125,-5.640625 -4.203125,-15.453125 0,-9.8125 4.171875,-15.453125 4.1875,-5.640625 11.453125,-5.640625 7.1875,0 11.375,5.65625 4.203125,5.671875 4.203125,15.4375 0,9.71875 -4.203125,15.40625 -4.1875,5.6875 -11.375,5.6875 z m 0,7.609375 q 11.71875,0 18.40625,-7.625 6.703125,-7.609375 6.703125,-21.078125 0,-13.421875 -6.703125,-21.078125 -6.6875,-7.640625 -18.40625,-7.640625 -11.765625,0 -18.4375,7.640625 -6.65625,7.65625 -6.65625,21.078125 0,13.46875 6.65625,21.078125 Q 18.84375,56 30.609375,56 Z" />
            <path
               id="DejaVuSans-110"
               d="M 54.890625,33.015625 V 0 H 45.90625 v 32.71875 q 0,7.765625 -3.03125,11.609375 -3.03125,3.859375 -9.078125,3.859375 -7.28125,0 -11.484375,-4.640625 -4.203125,-4.625 -4.203125,-12.640625 V 0 h -9.03125 v 54.6875 h 9.03125 v -8.5 q 3.234375,4.9375 7.59375,7.375 4.375,2.4375 10.09375,2.4375 9.421875,0 14.25,-5.828125 4.84375,-5.828125 4.84375,-17.15625 z" />
            <path
               d=""
               id="DejaVuSans-32" />
            <path
               id="DejaVuSans-35"
               d="M 51.125,44 H 36.921875 L 32.8125,27.6875 H 47.125 Z M 43.796875,71.78125 38.71875,51.515625 h 14.265625 l 5.125,20.265625 h 7.8125 L 60.890625,51.515625 H 76.125 V 44 H 58.984375 l -4,-16.3125 h 15.53125 v -7.46875 h -17.4375 L 48,0 h -7.8125 l 5.03125,20.21875 H 30.90625 L 25.875,0 h -7.859375 l 5.078125,20.21875 h -15.375 v 7.46875 h 17.1875 L 29,44 H 13.28125 v 7.515625 h 17.625 l 4.984375,20.265625 z" />
          </defs>
          <g
             id="g125"
             transform="matrix(0.1,0,0,-0.1,209.1725,335.86056)">
            <use
               height="100%"
               width="100%"
               y="0"
               x="0"
               id="use103"
               xlink:href="#DejaVuSans-73" />
            <use
               height="100%"
               width="100%"
               y="0"
               id="use105"
               xlink:href="#DejaVuSans-116"
               x="29.492188" />
            <use
               height="100%"
               width="100%"
               y="0"
               id="use107"
               xlink:href="#DejaVuSans-101"
               x="68.701172" />
            <use
               height="100%"
               width="100%"
               y="0"
               id="use109"
               xlink:href="#DejaVuSans-114"
               x="130.22461" />
            <use
               height="100%"
               width="100%"
               y="0"
               id="use111"
               xlink:href="#DejaVuSans-97"
               x="171.33789" />
            <use
               height="100%"
               width="100%"
               y="0"
               id="use113"
               xlink:href="#DejaVuSans-116"
               x="232.61719" />
            <use
               height="100%"
               width="100%"
               y="0"
               id="use115"
               xlink:href="#DejaVuSans-105"
               x="271.82617" />
            <use
               height="100%"
               width="100%"
               y="0"
               id="use117"
               xlink:href="#DejaVuSans-111"
               x="299.60938" />
            <use
               height="100%"
               width="100%"
               y="0"
               id="use119"
               xlink:href="#DejaVuSans-110"
               x="360.79102" />
            <use
               height="100%"
               width="100%"
               y="0"
               id="use121"
               xlink:href="#DejaVuSans-32"
               x="424.16992" />
            <use
               height="100%"
               width="100%"
               y="0"
               id="use123"
               xlink:href="#DejaVuSans-35"
               x="455.95703" />
          </g>
        </g>
      </g>
      <g
         inkscape:export-ydpi="200"
         inkscape:export-xdpi="200"
         id="matplotlib.axis_2">
        <g
           id="ytick_1">
          <g
             id="line2d_6">
            <defs
               id="defs130">
              <path
                 style="stroke:#000000;stroke-width:0.8"
                 id="m882251f723"
                 d="M 0,0 H -3.5" />
            </defs>
            <g
               id="g134">
              <use
                 height="100%"
                 width="100%"
                 id="use132"
                 y="277.59705"
                 xlink:href="#m882251f723"
                 x="57.599998"
                 style="stroke:#000000;stroke-width:0.8" />
            </g>
          </g>
          <g
             id="text_7">
            <!-- −600 -->
            <defs
               id="defs139">
              <path
                 id="DejaVuSans-8722"
                 d="M 10.59375,35.5 H 73.1875 V 27.203125 H 10.59375 Z" />
              <path
                 id="DejaVuSans-54"
                 d="m 33.015625,40.375 q -6.640625,0 -10.53125,-4.546875 -3.875,-4.53125 -3.875,-12.4375 0,-7.859375 3.875,-12.4375 3.890625,-4.5625 10.53125,-4.5625 6.640625,0 10.515625,4.5625 3.875,4.578125 3.875,12.4375 0,7.90625 -3.875,12.4375 Q 39.65625,40.375 33.015625,40.375 Z M 52.59375,71.296875 V 62.3125 q -3.71875,1.75 -7.5,2.671875 -3.78125,0.9375 -7.5,0.9375 -9.765625,0 -14.921875,-6.59375 -5.140625,-6.59375 -5.875,-19.921875 2.875,4.25 7.21875,6.515625 4.359375,2.265625 9.578125,2.265625 10.984375,0 17.359375,-6.671875 6.375,-6.65625 6.375,-18.125 0,-11.234375 -6.640625,-18.03125 -6.640625,-6.78125 -17.671875,-6.78125 -12.65625,0 -19.34375,9.6875 -6.6875,9.703125 -6.6875,28.109375 0,17.28125 8.203125,27.5625 8.203125,10.28125 22.015625,10.28125 3.71875,0 7.5,-0.734375 3.78125,-0.734375 7.890625,-2.1875 z" />
            </defs>
            <g
               id="g149"
               transform="matrix(0.1,0,0,-0.1,23.132812,281.39626)">
              <use
                 height="100%"
                 width="100%"
                 y="0"
                 x="0"
                 id="use141"
                 xlink:href="#DejaVuSans-8722" />
              <use
                 height="100%"
                 width="100%"
                 y="0"
                 id="use143"
                 xlink:href="#DejaVuSans-54"
                 x="83.789062" />
              <use
                 height="100%"
                 width="100%"
                 y="0"
                 id="use145"
                 xlink:href="#DejaVuSans-48"
                 x="147.41211" />
              <use
                 height="100%"
                 width="100%"
                 y="0"
                 id="use147"
                 xlink:href="#DejaVuSans-48"
                 x="211.03516" />
            </g>
          </g>
        </g>
        <g
           id="ytick_2">
          <g
             id="line2d_7">
            <g
               id="g155">
              <use
                 height="100%"
                 width="100%"
                 id="use153"
                 y="218.99268"
                 xlink:href="#m882251f723"
                 x="57.599998"
                 style="stroke:#000000;stroke-width:0.8" />
            </g>
          </g>
          <g
             id="text_8">
            <!-- −400 -->
            <g
               id="g166"
               transform="matrix(0.1,0,0,-0.1,23.132812,222.79189)">
              <use
                 height="100%"
                 width="100%"
                 y="0"
                 x="0"
                 id="use158"
                 xlink:href="#DejaVuSans-8722" />
              <use
                 height="100%"
                 width="100%"
                 y="0"
                 id="use160"
                 xlink:href="#DejaVuSans-52"
                 x="83.789062" />
              <use
                 height="100%"
                 width="100%"
                 y="0"
                 id="use162"
                 xlink:href="#DejaVuSans-48"
                 x="147.41211" />
              <use
                 height="100%"
                 width="100%"
                 y="0"
                 id="use164"
                 xlink:href="#DejaVuSans-48"
                 x="211.03516" />
            </g>
          </g>
        </g>
        <g
           id="ytick_3">
          <g
             id="line2d_8">
            <g
               id="g172">
              <use
                 height="100%"
                 width="100%"
                 id="use170"
                 y="160.38829"
                 xlink:href="#m882251f723"
                 x="57.599998"
                 style="stroke:#000000;stroke-width:0.8" />
            </g>
          </g>
          <g
             id="text_9">
            <!-- −200 -->
            <g
               id="g183"
               transform="matrix(0.1,0,0,-0.1,23.132812,164.18752)">
              <use
                 height="100%"
                 width="100%"
                 y="0"
                 x="0"
                 id="use175"
                 xlink:href="#DejaVuSans-8722" />
              <use
                 height="100%"
                 width="100%"
                 y="0"
                 id="use177"
                 xlink:href="#DejaVuSans-50"
                 x="83.789062" />
              <use
                 height="100%"
                 width="100%"
                 y="0"
                 id="use179"
                 xlink:href="#DejaVuSans-48"
                 x="147.41211" />
              <use
                 height="100%"
                 width="100%"
                 y="0"
                 id="use181"
                 xlink:href="#DejaVuSans-48"
                 x="211.03516" />
            </g>
          </g>
        </g>
        <g
           id="ytick_4">
          <g
             id="line2d_9">
            <g
               id="g189">
              <use
                 height="100%"
                 width="100%"
                 id="use187"
                 y="101.78393"
                 xlink:href="#m882251f723"
                 x="57.599998"
                 style="stroke:#000000;stroke-width:0.8" />
            </g>
          </g>
          <g
             id="text_10">
            <!-- 0 -->
            <g
               id="g194"
               transform="matrix(0.1,0,0,-0.1,44.2375,105.58314)">
              <use
                 height="100%"
                 width="100%"
                 y="0"
                 x="0"
                 id="use192"
                 xlink:href="#DejaVuSans-48" />
            </g>
          </g>
        </g>
        <g
           id="ytick_5">
          <g
             id="line2d_10">
            <g
               id="g200">
              <use
                 height="100%"
                 width="100%"
                 id="use198"
                 y="43.17955"
                 xlink:href="#m882251f723"
                 x="57.599998"
                 style="stroke:#000000;stroke-width:0.8" />
            </g>
          </g>
          <g
             id="text_11">
            <!-- 200 -->
            <g
               id="g209"
               transform="matrix(0.1,0,0,-0.1,31.5125,46.978771)">
              <use
                 height="100%"
                 width="100%"
                 y="0"
                 x="0"
                 id="use203"
                 xlink:href="#DejaVuSans-50" />
              <use
                 height="100%"
                 width="100%"
                 y="0"
                 id="use205"
                 xlink:href="#DejaVuSans-48"
                 x="63.623047" />
              <use
                 height="100%"
                 width="100%"
                 y="0"
                 id="use207"
                 xlink:href="#DejaVuSans-48"
                 x="127.24609" />
            </g>
          </g>
        </g>
        <g
           id="text_12">
          <!-- Human Score -->
          <defs
             id="defs218">
            <path
               id="DejaVuSans-72"
               d="m 9.8125,72.90625 h 9.859375 V 43.015625 h 35.84375 V 72.90625 H 65.375 V 0 H 55.515625 V 34.71875 H 19.671875 V 0 H 9.8125 Z" />
            <path
               id="DejaVuSans-117"
               d="M 8.5,21.578125 V 54.6875 h 8.984375 V 21.921875 q 0,-7.765625 3.015625,-11.65625 3.03125,-3.875 9.09375,-3.875 7.265625,0 11.484375,4.640625 4.234375,4.640625 4.234375,12.65625 v 31 h 8.984375 V 0 H 45.3125 V 8.40625 Q 42.046875,3.421875 37.71875,1 33.40625,-1.421875 27.6875,-1.421875 18.265625,-1.421875 13.375,4.4375 8.5,10.296875 8.5,21.578125 Z M 31.109375,56 Z" />
            <path
               id="DejaVuSans-109"
               d="M 52,44.1875 Q 55.375,50.25 60.0625,53.125 64.75,56 71.09375,56 q 8.546875,0 13.1875,-5.984375 4.640625,-5.96875 4.640625,-17 V 0 h -9.03125 v 32.71875 q 0,7.859375 -2.796875,11.65625 -2.78125,3.8125 -8.484375,3.8125 -6.984375,0 -11.046875,-4.640625 -4.046875,-4.625 -4.046875,-12.640625 V 0 h -9.03125 v 32.71875 q 0,7.90625 -2.78125,11.6875 -2.78125,3.78125 -8.59375,3.78125 -6.890625,0 -10.953125,-4.65625 -4.046875,-4.65625 -4.046875,-12.625 V 0 h -9.03125 v 54.6875 h 9.03125 v -8.5 q 3.078125,5.03125 7.375,7.421875 Q 29.78125,56 35.6875,56 41.65625,56 45.828125,52.96875 50,49.953125 52,44.1875 Z" />
            <path
               id="DejaVuSans-83"
               d="m 53.515625,70.515625 v -9.625 q -5.609375,2.6875 -10.59375,4 -4.984375,1.328125 -9.625,1.328125 -8.046875,0 -12.421875,-3.125 -4.375,-3.125 -4.375,-8.890625 0,-4.84375 2.90625,-7.3125 2.90625,-2.453125 11.015625,-3.96875 L 36.375,41.703125 Q 47.40625,39.59375 52.65625,34.296875 57.90625,29 57.90625,20.125 q 0,-10.609375 -7.109375,-16.078125 -7.09375,-5.46875 -20.8125,-5.46875 -5.171875,0 -11.015625,1.171875 Q 13.140625,0.921875 6.890625,3.21875 V 13.375 q 6,-3.359375 11.765625,-5.078125 5.765625,-1.703125 11.328125,-1.703125 8.4375,0 13.03125,3.3125 4.59375,3.328125 4.59375,9.484375 0,5.359375 -3.296875,8.390625 Q 41.015625,30.8125 33.5,32.328125 L 27.484375,33.5 q -11.03125,2.1875 -15.96875,6.875 -4.921875,4.6875 -4.921875,13.046875 0,9.671875 6.8125,15.234375 6.8125,5.5625 18.765625,5.5625 5.140625,0 10.453125,-0.9375 5.328125,-0.921875 10.890625,-2.765625 z" />
            <path
               id="DejaVuSans-99"
               d="M 48.78125,52.59375 V 44.1875 q -3.8125,2.109375 -7.640625,3.15625 -3.828125,1.046875 -7.734375,1.046875 -8.75,0 -13.59375,-5.546875 -4.828125,-5.53125 -4.828125,-15.546875 0,-10.015625 4.828125,-15.5625 4.84375,-5.53125 13.59375,-5.53125 3.90625,0 7.734375,1.046875 3.828125,1.046875 7.640625,3.15625 v -8.3125 q -3.765625,-1.75 -7.796875,-2.625 -4.015625,-0.890625 -8.5625,-0.890625 -12.359375,0 -19.640625,7.765625 -7.265625,7.765625 -7.265625,20.953125 0,13.375 7.34375,21.03125 Q 20.21875,56 33.015625,56 q 4.140625,0 8.09375,-0.859375 3.953125,-0.84375 7.671875,-2.546875 z" />
          </defs>
          <g
             id="g242"
             transform="matrix(0,-0.1,-0.1,0,17.053125,208.26237)">
            <use
               height="100%"
               width="100%"
               y="0"
               x="0"
               id="use220"
               xlink:href="#DejaVuSans-72" />
            <use
               height="100%"
               width="100%"
               y="0"
               id="use222"
               xlink:href="#DejaVuSans-117"
               x="75.195312" />
            <use
               height="100%"
               width="100%"
               y="0"
               id="use224"
               xlink:href="#DejaVuSans-109"
               x="138.57422" />
            <use
               height="100%"
               width="100%"
               y="0"
               id="use226"
               xlink:href="#DejaVuSans-97"
               x="235.98633" />
            <use
               height="100%"
               width="100%"
               y="0"
               id="use228"
               xlink:href="#DejaVuSans-110"
               x="297.26562" />
            <use
               height="100%"
               width="100%"
               y="0"
               id="use230"
               xlink:href="#DejaVuSans-32"
               x="360.64453" />
            <use
               height="100%"
               width="100%"
               y="0"
               id="use232"
               xlink:href="#DejaVuSans-83"
               x="392.43164" />
            <use
               height="100%"
               width="100%"
               y="0"
               id="use234"
               xlink:href="#DejaVuSans-99"
               x="455.9082" />
            <use
               height="100%"
               width="100%"
               y="0"
               id="use236"
               xlink:href="#DejaVuSans-111"
               x="510.88867" />
            <use
               height="100%"
               width="100%"
               y="0"
               id="use238"
               xlink:href="#DejaVuSans-114"
               x="572.07031" />
            <use
               height="100%"
               width="100%"
               y="0"
               id="use240"
               xlink:href="#DejaVuSans-101"
               x="613.15234" />
          </g>
        </g>
      </g>
      <g
         inkscape:export-ydpi="200"
         inkscape:export-xdpi="200"
         id="line2d_11">
        <path
           id="path246"
           style="fill:none;stroke:#ffffff;stroke-width:1.5;stroke-linecap:square"
           d="M 73.832727,209.65049 154.99636,167.6669 236.16,149.63981 l 81.16364,-14.89708 81.16363,-20.98826"
           clip-path="url(#p62cf1087b1)" />
      </g>
      <g
         inkscape:export-ydpi="200"
         inkscape:export-xdpi="200"
         id="line2d_12">
        <path
           id="path249"
           style="fill:none;stroke:#000000;stroke-width:1.5;stroke-linecap:square"
           d="M 73.832727,276.43144 154.99636,125.93029 236.16,90.234027 317.32364,67.728849 398.48727,56.234942"
           clip-path="url(#p62cf1087b1)" />
      </g>
      <g
         inkscape:export-ydpi="200"
         inkscape:export-xdpi="200"
         id="patch_3">
        <path
           id="path252"
           style="fill:none;stroke:#000000;stroke-width:0.8;stroke-linecap:square;stroke-linejoin:miter"
           d="M 57.6,307.584 V 41.472" />
      </g>
      <g
         inkscape:export-ydpi="200"
         inkscape:export-xdpi="200"
         id="patch_5">
        <path
           id="path258"
           style="fill:none;stroke:#000000;stroke-width:0.8;stroke-linecap:square;stroke-linejoin:miter"
           d="M 57.6,307.584 H 414.72" />
      </g>
      <g
         inkscape:export-ydpi="200"
         inkscape:export-xdpi="200"
         id="line2d_13">
        <path
           d="m 66.6,54.570438 h 20"
           style="fill:none;stroke:#ffffff;stroke-width:1.5;stroke-linecap:square"
           id="path299" />
      </g>
      <g
         id="line2d_14" />
      <g
         id="line2d_16" />
      <g
         inkscape:export-ydpi="200"
         inkscape:export-xdpi="200"
         id="patch_8"
         transform="matrix(1.0000125,0,0,2.6785715,152.88858,2.8639048)">
        <path
           d="m 66.6,87.426688 h 20 v -7 h -20 z"
           style="fill:#1f77b4"
           id="path307" />
      </g>
      <g
         inkscape:export-ydpi="200"
         inkscape:export-xdpi="200"
         id="patch_9"
         transform="matrix(1,0,0,2.6785726,152.88954,-5.7966098)">
        <path
           d="m 66.6,102.10481 h 20 v -6.999997 h -20 z"
           style="fill:#ff7f0e"
           id="path332" />
      </g>
    </g>
  </g>
  <defs
     id="defs358">
    <clipPath
       id="p62cf1087b1">
      <rect
         id="rect355"
         y="41.472"
         x="57.599998"
         width="357.12"
         height="266.112" />
    </clipPath>
  </defs>
</svg>
