<?xml version="1.0" encoding="UTF-8" standalone="no"?>
<svg
   xmlns:dc="http://purl.org/dc/elements/1.1/"
   xmlns:cc="http://creativecommons.org/ns#"
   xmlns:rdf="http://www.w3.org/1999/02/22-rdf-syntax-ns#"
   xmlns:svg="http://www.w3.org/2000/svg"
   xmlns="http://www.w3.org/2000/svg"
   xmlns:xlink="http://www.w3.org/1999/xlink"
   xmlns:sodipodi="http://sodipodi.sourceforge.net/DTD/sodipodi-0.dtd"
   xmlns:inkscape="http://www.inkscape.org/namespaces/inkscape"
   inkscape:version="1.0 (6e3e5246a0, 2020-05-07)"
   sodipodi:docname="adaptRL.svg"
   id="svg424"
   width="460.8pt"
   viewBox="0 0 460.8 345.6"
   version="1.1"
   height="345.6pt">
  <metadata
     id="metadata428">
    <rdf:RDF>
      <cc:Work
         rdf:about="">
        <dc:format>image/svg+xml</dc:format>
        <dc:type
           rdf:resource="http://purl.org/dc/dcmitype/StillImage" />
      </cc:Work>
    </rdf:RDF>
  </metadata>
  <sodipodi:namedview
     inkscape:current-layer="svg424"
     inkscape:window-maximized="1"
     inkscape:window-y="27"
     inkscape:window-x="0"
     inkscape:cy="306.3275"
     inkscape:cx="-206.862"
     inkscape:zoom="0.64019096"
     showgrid="false"
     id="namedview426"
     inkscape:window-height="746"
     inkscape:window-width="1440"
     inkscape:pageshadow="2"
     inkscape:pageopacity="0"
     guidetolerance="10"
     gridtolerance="10"
     objecttolerance="10"
     borderopacity="1"
     bordercolor="#666666"
     pagecolor="#ffffff" />
  <defs
     id="defs4">
    <style
       id="style2"
       type="text/css">
*{stroke-linecap:butt;stroke-linejoin:round;}
  </style>
    <style
       id="style2-67"
       type="text/css">
*{stroke-linecap:butt;stroke-linejoin:round;}
  </style>
    <style
       id="style2-6"
       type="text/css">
*{stroke-linecap:butt;stroke-linejoin:round;}
  </style>
    <path
       style="stroke:#000000;stroke-width:0.8"
       id="m2ee7fde9cd"
       d="M 0,0 V 3.5" />
    <path
       id="DejaVuSans-48-2"
       d="m 31.78125,66.40625 q -7.609375,0 -11.453125,-7.5 Q 16.5,51.421875 16.5,36.375 q 0,-14.984375 3.828125,-22.484375 3.84375,-7.5 11.453125,-7.5 7.671875,0 11.5,7.5 3.84375,7.5 3.84375,22.484375 0,15.046875 -3.84375,22.53125 -3.828125,7.5 -11.5,7.5 z m 0,7.8125 q 12.265625,0 18.734375,-9.703125 6.46875,-9.6875 6.46875,-28.140625 0,-18.40625 -6.46875,-28.109375 -6.46875,-9.6875 -18.734375,-9.6875 -12.25,0 -18.71875,9.6875 Q 6.59375,17.96875 6.59375,36.375 q 0,18.453125 6.46875,28.140625 6.46875,9.703125 18.71875,9.703125 z" />
    <path
       id="DejaVuSans-49-0"
       d="m 12.40625,8.296875 h 16.109375 v 55.625 L 10.984375,60.40625 v 8.984375 l 17.4375,3.515625 H 38.28125 V 8.296875 H 54.390625 V 0 H 12.40625 Z" />
    <path
       id="DejaVuSans-50-7"
       d="M 19.1875,8.296875 H 53.609375 V 0 H 7.328125 v 8.296875 q 5.609375,5.8125 15.296875,15.59375 9.703125,9.796875 12.1875,12.640625 4.734375,5.3125 6.609375,9 1.890625,3.6875 1.890625,7.25 0,5.8125 -4.078125,9.46875 -4.078125,3.671875 -10.625,3.671875 -4.640625,0 -9.796875,-1.609375 -5.140625,-1.609375 -11,-4.890625 v 9.96875 Q 13.765625,71.78125 18.9375,73 q 5.1875,1.21875 9.484375,1.21875 11.328125,0 18.0625,-5.671875 6.734375,-5.65625 6.734375,-15.125 0,-4.5 -1.6875,-8.53125 Q 49.859375,40.875 45.40625,35.40625 44.1875,33.984375 37.640625,27.21875 31.109375,20.453125 19.1875,8.296875 Z" />
    <path
       id="DejaVuSans-51-7"
       d="M 40.578125,39.3125 Q 47.65625,37.796875 51.625,33 q 3.984375,-4.78125 3.984375,-11.8125 0,-10.78125 -7.421875,-16.703125 -7.421875,-5.90625 -21.09375,-5.90625 -4.578125,0 -9.4375,0.90625 -4.859375,0.90625 -10.03125,2.71875 v 9.515625 q 4.09375,-2.390625 8.96875,-3.609375 4.890625,-1.21875 10.21875,-1.21875 9.265625,0 14.125,3.65625 4.859375,3.65625 4.859375,10.640625 0,6.453125 -4.515625,10.078125 -4.515625,3.640625 -12.5625,3.640625 h -8.5 v 8.109375 h 8.890625 q 7.265625,0 11.125,2.90625 3.859375,2.90625 3.859375,8.375 0,5.609375 -3.984375,8.609375 -3.96875,3.015625 -11.390625,3.015625 -4.0625,0 -8.703125,-0.890625 Q 15.375,64.15625 9.8125,62.3125 v 8.78125 q 5.625,1.5625 10.53125,2.34375 4.90625,0.78125 9.25,0.78125 11.234375,0 17.765625,-5.109375 6.546875,-5.09375 6.546875,-13.78125 0,-6.0625 -3.46875,-10.234375 -3.46875,-4.171875 -9.859375,-5.78125 z" />
    <path
       id="DejaVuSans-52-9"
       d="M 37.796875,64.3125 12.890625,25.390625 h 24.90625 z m -2.59375,8.59375 h 12.40625 V 25.390625 h 10.40625 V 17.1875 H 47.609375 V 0 h -9.8125 V 17.1875 H 4.890625 v 9.515625 z" />
    <path
       id="DejaVuSans-73-3"
       d="m 9.8125,72.90625 h 9.859375 V 0 H 9.8125 Z" />
    <path
       id="DejaVuSans-116-6"
       d="M 18.3125,70.21875 V 54.6875 h 18.5 v -6.984375 h -18.5 v -29.6875 q 0,-6.6875 1.828125,-8.59375 1.828125,-1.90625 7.453125,-1.90625 H 36.8125 V 0 H 27.59375 Q 17.1875,0 13.234375,3.875 9.28125,7.765625 9.28125,18.015625 v 29.6875 H 2.6875 V 54.6875 h 6.59375 v 15.53125 z" />
    <path
       id="DejaVuSans-101-1"
       d="m 56.203125,29.59375 v -4.390625 h -41.3125 q 0.59375,-9.28125 5.59375,-14.140625 5,-4.859375 13.9375,-4.859375 5.171875,0 10.03125,1.265625 4.859375,1.265625 9.65625,3.8125 v -8.5 q -4.84375,-2.046875 -9.921875,-3.125 -5.078125,-1.078125 -10.296875,-1.078125 -13.09375,0 -20.734375,7.609375 -7.640625,7.625 -7.640625,20.625 0,13.421875 7.25,21.296875 Q 20.015625,56 32.328125,56 q 11.03125,0 17.453125,-7.109375 6.421875,-7.09375 6.421875,-19.296875 z m -8.984375,2.640625 q -0.09375,7.359375 -4.125,11.75 -4.03125,4.40625 -10.671875,4.40625 -7.515625,0 -12.03125,-4.25 -4.515625,-4.25 -5.203125,-11.96875 z" />
    <path
       id="DejaVuSans-114-2"
       d="m 41.109375,46.296875 q -1.515625,0.875 -3.296875,1.28125 Q 36.03125,48 33.890625,48 26.265625,48 22.1875,43.046875 18.109375,38.09375 18.109375,28.8125 V 0 h -9.03125 v 54.6875 h 9.03125 v -8.5 q 2.84375,4.984375 7.375,7.390625 Q 30.03125,56 36.53125,56 q 0.921875,0 2.046875,-0.125 1.125,-0.109375 2.484375,-0.359375 z" />
    <path
       id="DejaVuSans-97-9"
       d="m 34.28125,27.484375 q -10.890625,0 -15.09375,-2.484375 -4.203125,-2.484375 -4.203125,-8.5 0,-4.78125 3.15625,-7.59375 3.15625,-2.796875 8.5625,-2.796875 7.484375,0 12,5.296875 4.515625,5.296875 4.515625,14.078125 v 2 z m 17.921875,3.71875 V 0 H 43.21875 v 8.296875 q -3.078125,-4.96875 -7.671875,-7.34375 -4.59375,-2.375 -11.234375,-2.375 -8.390625,0 -13.359375,4.71875 Q 6,8.015625 6,15.921875 q 0,9.21875 6.171875,13.90625 6.1875,4.6875 18.4375,4.6875 H 43.21875 v 0.890625 q 0,6.203125 -4.078125,9.59375 -4.078125,3.390625 -11.453125,3.390625 -4.6875,0 -9.140625,-1.125 -4.4375,-1.125 -8.53125,-3.375 v 8.3125 q 4.921875,1.90625 9.5625,2.84375 Q 24.21875,56 28.609375,56 q 11.875,0 17.734375,-6.15625 5.859375,-6.140625 5.859375,-18.640625 z" />
    <path
       id="DejaVuSans-105-3"
       d="M 9.421875,54.6875 H 18.40625 V 0 H 9.421875 Z m 0,21.296875 H 18.40625 V 64.59375 H 9.421875 Z" />
    <path
       id="DejaVuSans-111-1"
       d="m 30.609375,48.390625 q -7.21875,0 -11.421875,-5.640625 -4.203125,-5.640625 -4.203125,-15.453125 0,-9.8125 4.171875,-15.453125 4.1875,-5.640625 11.453125,-5.640625 7.1875,0 11.375,5.65625 4.203125,5.671875 4.203125,15.4375 0,9.71875 -4.203125,15.40625 -4.1875,5.6875 -11.375,5.6875 z m 0,7.609375 q 11.71875,0 18.40625,-7.625 6.703125,-7.609375 6.703125,-21.078125 0,-13.421875 -6.703125,-21.078125 -6.6875,-7.640625 -18.40625,-7.640625 -11.765625,0 -18.4375,7.640625 -6.65625,7.65625 -6.65625,21.078125 0,13.46875 6.65625,21.078125 Q 18.84375,56 30.609375,56 Z" />
    <path
       id="DejaVuSans-110-9"
       d="M 54.890625,33.015625 V 0 H 45.90625 v 32.71875 q 0,7.765625 -3.03125,11.609375 -3.03125,3.859375 -9.078125,3.859375 -7.28125,0 -11.484375,-4.640625 -4.203125,-4.625 -4.203125,-12.640625 V 0 h -9.03125 v 54.6875 h 9.03125 v -8.5 q 3.234375,4.9375 7.59375,7.375 4.375,2.4375 10.09375,2.4375 9.421875,0 14.25,-5.828125 4.84375,-5.828125 4.84375,-17.15625 z" />
    <path
       d=""
       id="DejaVuSans-32-4" />
    <path
       id="DejaVuSans-35"
       d="M 51.125,44 H 36.921875 L 32.8125,27.6875 H 47.125 Z M 43.796875,71.78125 38.71875,51.515625 h 14.265625 l 5.125,20.265625 h 7.8125 L 60.890625,51.515625 H 76.125 V 44 H 58.984375 l -4,-16.3125 h 15.53125 v -7.46875 h -17.4375 L 48,0 h -7.8125 l 5.03125,20.21875 H 30.90625 L 25.875,0 h -7.859375 l 5.078125,20.21875 h -15.375 v 7.46875 h 17.1875 L 29,44 H 13.28125 v 7.515625 h 17.625 l 4.984375,20.265625 z" />
    <path
       style="stroke:#000000;stroke-width:0.8"
       id="m882251f723"
       d="M 0,0 H -3.5" />
    <path
       id="DejaVuSans-8722-1"
       d="M 10.59375,35.5 H 73.1875 V 27.203125 H 10.59375 Z" />
    <path
       id="DejaVuSans-54-0"
       d="m 33.015625,40.375 q -6.640625,0 -10.53125,-4.546875 -3.875,-4.53125 -3.875,-12.4375 0,-7.859375 3.875,-12.4375 3.890625,-4.5625 10.53125,-4.5625 6.640625,0 10.515625,4.5625 3.875,4.578125 3.875,12.4375 0,7.90625 -3.875,12.4375 Q 39.65625,40.375 33.015625,40.375 Z M 52.59375,71.296875 V 62.3125 q -3.71875,1.75 -7.5,2.671875 -3.78125,0.9375 -7.5,0.9375 -9.765625,0 -14.921875,-6.59375 -5.140625,-6.59375 -5.875,-19.921875 2.875,4.25 7.21875,6.515625 4.359375,2.265625 9.578125,2.265625 10.984375,0 17.359375,-6.671875 6.375,-6.65625 6.375,-18.125 0,-11.234375 -6.640625,-18.03125 -6.640625,-6.78125 -17.671875,-6.78125 -12.65625,0 -19.34375,9.6875 -6.6875,9.703125 -6.6875,28.109375 0,17.28125 8.203125,27.5625 8.203125,10.28125 22.015625,10.28125 3.71875,0 7.5,-0.734375 3.78125,-0.734375 7.890625,-2.1875 z" />
    <path
       id="DejaVuSans-72-5"
       d="m 9.8125,72.90625 h 9.859375 V 43.015625 h 35.84375 V 72.90625 H 65.375 V 0 H 55.515625 V 34.71875 H 19.671875 V 0 H 9.8125 Z" />
    <path
       id="DejaVuSans-117-4"
       d="M 8.5,21.578125 V 54.6875 h 8.984375 V 21.921875 q 0,-7.765625 3.015625,-11.65625 3.03125,-3.875 9.09375,-3.875 7.265625,0 11.484375,4.640625 4.234375,4.640625 4.234375,12.65625 v 31 h 8.984375 V 0 H 45.3125 V 8.40625 Q 42.046875,3.421875 37.71875,1 33.40625,-1.421875 27.6875,-1.421875 18.265625,-1.421875 13.375,4.4375 8.5,10.296875 8.5,21.578125 Z M 31.109375,56 Z" />
    <path
       id="DejaVuSans-109-7"
       d="M 52,44.1875 Q 55.375,50.25 60.0625,53.125 64.75,56 71.09375,56 q 8.546875,0 13.1875,-5.984375 4.640625,-5.96875 4.640625,-17 V 0 h -9.03125 v 32.71875 q 0,7.859375 -2.796875,11.65625 -2.78125,3.8125 -8.484375,3.8125 -6.984375,0 -11.046875,-4.640625 -4.046875,-4.625 -4.046875,-12.640625 V 0 h -9.03125 v 32.71875 q 0,7.90625 -2.78125,11.6875 -2.78125,3.78125 -8.59375,3.78125 -6.890625,0 -10.953125,-4.65625 -4.046875,-4.65625 -4.046875,-12.625 V 0 h -9.03125 v 54.6875 h 9.03125 v -8.5 q 3.078125,5.03125 7.375,7.421875 Q 29.78125,56 35.6875,56 41.65625,56 45.828125,52.96875 50,49.953125 52,44.1875 Z" />
    <path
       id="DejaVuSans-83-4"
       d="m 53.515625,70.515625 v -9.625 q -5.609375,2.6875 -10.59375,4 -4.984375,1.328125 -9.625,1.328125 -8.046875,0 -12.421875,-3.125 -4.375,-3.125 -4.375,-8.890625 0,-4.84375 2.90625,-7.3125 2.90625,-2.453125 11.015625,-3.96875 L 36.375,41.703125 Q 47.40625,39.59375 52.65625,34.296875 57.90625,29 57.90625,20.125 q 0,-10.609375 -7.109375,-16.078125 -7.09375,-5.46875 -20.8125,-5.46875 -5.171875,0 -11.015625,1.171875 Q 13.140625,0.921875 6.890625,3.21875 V 13.375 q 6,-3.359375 11.765625,-5.078125 5.765625,-1.703125 11.328125,-1.703125 8.4375,0 13.03125,3.3125 4.59375,3.328125 4.59375,9.484375 0,5.359375 -3.296875,8.390625 Q 41.015625,30.8125 33.5,32.328125 L 27.484375,33.5 q -11.03125,2.1875 -15.96875,6.875 -4.921875,4.6875 -4.921875,13.046875 0,9.671875 6.8125,15.234375 6.8125,5.5625 18.765625,5.5625 5.140625,0 10.453125,-0.9375 5.328125,-0.921875 10.890625,-2.765625 z" />
    <path
       id="DejaVuSans-99-4"
       d="M 48.78125,52.59375 V 44.1875 q -3.8125,2.109375 -7.640625,3.15625 -3.828125,1.046875 -7.734375,1.046875 -8.75,0 -13.59375,-5.546875 -4.828125,-5.53125 -4.828125,-15.546875 0,-10.015625 4.828125,-15.5625 4.84375,-5.53125 13.59375,-5.53125 3.90625,0 7.734375,1.046875 3.828125,1.046875 7.640625,3.15625 v -8.3125 q -3.765625,-1.75 -7.796875,-2.625 -4.015625,-0.890625 -8.5625,-0.890625 -12.359375,0 -19.640625,7.765625 -7.265625,7.765625 -7.265625,20.953125 0,13.375 7.34375,21.03125 Q 20.21875,56 33.015625,56 q 4.140625,0 8.09375,-0.859375 3.953125,-0.84375 7.671875,-2.546875 z" />
    <clipPath
       id="p62cf1087b1">
      <rect
         id="rect355"
         y="41.472"
         x="57.599998"
         width="357.12"
         height="266.112" />
    </clipPath>
    <defs
       id="defs397">
      <path
         id="DejaVuSans-70"
         d="m 9.8125,72.90625 h 41.890625 v -8.3125 H 19.671875 V 43.109375 h 28.90625 V 34.8125 H 19.671875 V 0 H 9.8125 Z" />
      <path
         id="DejaVuSans-108"
         d="M 9.421875,75.984375 H 18.40625 V 0 H 9.421875 Z" />
      <path
         id="DejaVuSans-65"
         d="M 34.1875,63.1875 20.796875,26.90625 h 26.8125 z m -5.578125,9.71875 h 11.1875 L 67.578125,0 h -10.25 L 50.6875,18.703125 H 17.828125 L 11.1875,0 H 0.78125 Z" />
    </defs>
    <defs
       id="defs440">
      <path
         id="DejaVuSans-77"
         d="M 9.8125,72.90625 H 24.515625 L 43.109375,23.296875 61.8125,72.90625 H 76.515625 V 0 h -9.625 v 64.015625 l -18.796875,-50 H 38.1875 l -18.796875,50 V 0 H 9.8125 Z" />
    </defs>
    <defs
       id="defs463">
      <path
         id="DejaVuSans-78"
         d="M 9.8125,72.90625 H 23.09375 L 55.421875,11.921875 V 72.90625 h 9.5625 V 0 h -13.28125 l -32.3125,60.984375 V 0 H 9.8125 Z" />
    </defs>
    <path
       id="path2105"
       d="m 9.8125,72.90625 h 41.890625 v -8.3125 H 19.671875 V 43.109375 h 28.90625 V 34.8125 H 19.671875 V 0 H 9.8125 Z" />
    <path
       id="path2107"
       d="M 9.421875,75.984375 H 18.40625 V 0 H 9.421875 Z" />
    <path
       id="path2109"
       d="M 34.1875,63.1875 20.796875,26.90625 h 26.8125 z m -5.578125,9.71875 h 11.1875 L 67.578125,0 h -10.25 L 50.6875,18.703125 H 17.828125 L 11.1875,0 H 0.78125 Z" />
    <path
       id="path2111"
       d="M 9.8125,72.90625 H 24.515625 L 43.109375,23.296875 61.8125,72.90625 H 76.515625 V 0 h -9.625 v 64.015625 l -18.796875,-50 H 38.1875 l -18.796875,50 V 0 H 9.8125 Z" />
    <path
       id="path2113"
       d="M 9.8125,72.90625 H 23.09375 L 55.421875,11.921875 V 72.90625 h 9.5625 V 0 h -13.28125 l -32.3125,60.984375 V 0 H 9.8125 Z" />
    <path
       style="stroke:#000000;stroke-width:0.8"
       id="m847b5c2c9f"
       d="M 0,0 V 3.5" />
    <path
       id="DejaVuSans-48-7"
       d="m 31.78125,66.40625 q -7.609375,0 -11.453125,-7.5 Q 16.5,51.421875 16.5,36.375 q 0,-14.984375 3.828125,-22.484375 3.84375,-7.5 11.453125,-7.5 7.671875,0 11.5,7.5 3.84375,7.5 3.84375,22.484375 0,15.046875 -3.84375,22.53125 -3.828125,7.5 -11.5,7.5 z m 0,7.8125 q 12.265625,0 18.734375,-9.703125 6.46875,-9.6875 6.46875,-28.140625 0,-18.40625 -6.46875,-28.109375 -6.46875,-9.6875 -18.734375,-9.6875 -12.25,0 -18.71875,9.6875 Q 6.59375,17.96875 6.59375,36.375 q 0,18.453125 6.46875,28.140625 6.46875,9.703125 18.71875,9.703125 z" />
    <path
       id="DejaVuSans-49-6"
       d="m 12.40625,8.296875 h 16.109375 v 55.625 L 10.984375,60.40625 v 8.984375 l 17.4375,3.515625 H 38.28125 V 8.296875 H 54.390625 V 0 H 12.40625 Z" />
    <path
       id="DejaVuSans-50-9"
       d="M 19.1875,8.296875 H 53.609375 V 0 H 7.328125 v 8.296875 q 5.609375,5.8125 15.296875,15.59375 9.703125,9.796875 12.1875,12.640625 4.734375,5.3125 6.609375,9 1.890625,3.6875 1.890625,7.25 0,5.8125 -4.078125,9.46875 -4.078125,3.671875 -10.625,3.671875 -4.640625,0 -9.796875,-1.609375 -5.140625,-1.609375 -11,-4.890625 v 9.96875 Q 13.765625,71.78125 18.9375,73 q 5.1875,1.21875 9.484375,1.21875 11.328125,0 18.0625,-5.671875 6.734375,-5.65625 6.734375,-15.125 0,-4.5 -1.6875,-8.53125 Q 49.859375,40.875 45.40625,35.40625 44.1875,33.984375 37.640625,27.21875 31.109375,20.453125 19.1875,8.296875 Z" />
    <path
       id="DejaVuSans-51"
       d="M 40.578125,39.3125 Q 47.65625,37.796875 51.625,33 q 3.984375,-4.78125 3.984375,-11.8125 0,-10.78125 -7.421875,-16.703125 -7.421875,-5.90625 -21.09375,-5.90625 -4.578125,0 -9.4375,0.90625 -4.859375,0.90625 -10.03125,2.71875 v 9.515625 q 4.09375,-2.390625 8.96875,-3.609375 4.890625,-1.21875 10.21875,-1.21875 9.265625,0 14.125,3.65625 4.859375,3.65625 4.859375,10.640625 0,6.453125 -4.515625,10.078125 -4.515625,3.640625 -12.5625,3.640625 h -8.5 v 8.109375 h 8.890625 q 7.265625,0 11.125,2.90625 3.859375,2.90625 3.859375,8.375 0,5.609375 -3.984375,8.609375 -3.96875,3.015625 -11.390625,3.015625 -4.0625,0 -8.703125,-0.890625 Q 15.375,64.15625 9.8125,62.3125 v 8.78125 q 5.625,1.5625 10.53125,2.34375 4.90625,0.78125 9.25,0.78125 11.234375,0 17.765625,-5.109375 6.546875,-5.09375 6.546875,-13.78125 0,-6.0625 -3.46875,-10.234375 -3.46875,-4.171875 -9.859375,-5.78125 z" />
    <path
       id="DejaVuSans-52-97"
       d="M 37.796875,64.3125 12.890625,25.390625 h 24.90625 z m -2.59375,8.59375 h 12.40625 V 25.390625 h 10.40625 V 17.1875 H 47.609375 V 0 h -9.8125 V 17.1875 H 4.890625 v 9.515625 z" />
    <path
       id="DejaVuSans-53"
       d="m 10.796875,72.90625 h 38.71875 v -8.3125 h -29.6875 V 46.734375 q 2.140625,0.734375 4.28125,1.09375 2.15625,0.359375 4.3125,0.359375 Q 40.625,48.1875 47.75,41.5 54.890625,34.8125 54.890625,23.390625 54.890625,11.625 47.5625,5.09375 40.234375,-1.421875 26.90625,-1.421875 q -4.59375,0 -9.359375,0.78125 -4.75,0.78125 -9.828125,2.34375 V 11.625 q 4.390625,-2.390625 9.078125,-3.5625 4.6875,-1.171875 9.90625,-1.171875 8.453125,0 13.375,4.4375 4.9375,4.4375 4.9375,12.0625 0,7.609375 -4.9375,12.046875 -4.921875,4.453125 -13.375,4.453125 -3.953125,0 -7.890625,-0.875 -3.921875,-0.875 -8.015625,-2.734375 z" />
    <path
       id="DejaVuSans-54-4"
       d="m 33.015625,40.375 q -6.640625,0 -10.53125,-4.546875 -3.875,-4.53125 -3.875,-12.4375 0,-7.859375 3.875,-12.4375 3.890625,-4.5625 10.53125,-4.5625 6.640625,0 10.515625,4.5625 3.875,4.578125 3.875,12.4375 0,7.90625 -3.875,12.4375 Q 39.65625,40.375 33.015625,40.375 Z M 52.59375,71.296875 V 62.3125 q -3.71875,1.75 -7.5,2.671875 -3.78125,0.9375 -7.5,0.9375 -9.765625,0 -14.921875,-6.59375 -5.140625,-6.59375 -5.875,-19.921875 2.875,4.25 7.21875,6.515625 4.359375,2.265625 9.578125,2.265625 10.984375,0 17.359375,-6.671875 6.375,-6.65625 6.375,-18.125 0,-11.234375 -6.640625,-18.03125 -6.640625,-6.78125 -17.671875,-6.78125 -12.65625,0 -19.34375,9.6875 -6.6875,9.703125 -6.6875,28.109375 0,17.28125 8.203125,27.5625 8.203125,10.28125 22.015625,10.28125 3.71875,0 7.5,-0.734375 3.78125,-0.734375 7.890625,-2.1875 z" />
    <path
       id="DejaVuSans-55"
       d="m 8.203125,72.90625 h 46.875 V 68.703125 L 28.609375,0 H 18.3125 L 43.21875,64.59375 H 8.203125 Z" />
    <path
       id="DejaVuSans-56-6"
       d="m 31.78125,34.625 q -7.03125,0 -11.0625,-3.765625 -4.015625,-3.765625 -4.015625,-10.34375 0,-6.59375 4.015625,-10.359375 4.03125,-3.765625 11.0625,-3.765625 7.03125,0 11.078125,3.78125 4.0625,3.796875 4.0625,10.34375 0,6.578125 -4.03125,10.34375 Q 38.875,34.625 31.78125,34.625 Z m -9.859375,4.1875 Q 15.578125,40.375 12.03125,44.71875 8.5,49.078125 8.5,55.328125 q 0,8.734375 6.21875,13.8125 6.234375,5.078125 17.0625,5.078125 10.890625,0 17.09375,-5.078125 6.203125,-5.078125 6.203125,-13.8125 0,-6.25 -3.546875,-10.609375 Q 48,40.375 41.703125,38.8125 q 7.125,-1.65625 11.09375,-6.5 3.984375,-4.828125 3.984375,-11.796875 0,-10.609375 -6.46875,-16.28125 -6.46875,-5.65625 -18.53125,-5.65625 -12.046875,0 -18.53125,5.65625 -6.46875,5.671875 -6.46875,16.28125 0,6.96875 4,11.796875 4.015625,4.84375 11.140625,6.5 z M 18.3125,54.390625 q 0,-5.65625 3.53125,-8.828125 3.546875,-3.171875 9.9375,-3.171875 6.359375,0 9.9375,3.171875 3.59375,3.171875 3.59375,8.828125 0,5.671875 -3.59375,8.84375 -3.578125,3.171875 -9.9375,3.171875 -6.390625,0 -9.9375,-3.171875 Q 18.3125,60.0625 18.3125,54.390625 Z" />
    <path
       id="DejaVuSans-57"
       d="M 10.984375,1.515625 V 10.5 Q 14.703125,8.734375 18.5,7.8125 q 3.8125,-0.921875 7.484375,-0.921875 9.765625,0 14.90625,6.5625 5.15625,6.5625 5.890625,19.953125 -2.828125,-4.203125 -7.1875,-6.453125 -4.34375,-2.25 -9.609375,-2.25 -10.9375,0 -17.3125,6.609375 -6.375,6.625 -6.375,18.109375 0,11.21875 6.640625,18 6.640625,6.796875 17.671875,6.796875 12.65625,0 19.3125,-9.703125 6.671875,-9.6875 6.671875,-28.140625 0,-17.234375 -8.1875,-27.515625 -8.171875,-10.28125 -21.984375,-10.28125 -3.71875,0 -7.53125,0.734375 -3.796875,0.734375 -7.90625,2.203125 z m 19.625,30.90625 q 6.640625,0 10.515625,4.53125 3.890625,4.546875 3.890625,12.46875 0,7.859375 -3.890625,12.421875 -3.875,4.5625 -10.515625,4.5625 -6.640625,0 -10.515625,-4.5625 -3.875,-4.5625 -3.875,-12.421875 0,-7.921875 3.875,-12.46875 3.875,-4.53125 10.515625,-4.53125 z" />
    <path
       id="DejaVuSans-73-5"
       d="m 9.8125,72.90625 h 9.859375 V 0 H 9.8125 Z" />
    <path
       id="DejaVuSans-116-5"
       d="M 18.3125,70.21875 V 54.6875 h 18.5 v -6.984375 h -18.5 v -29.6875 q 0,-6.6875 1.828125,-8.59375 1.828125,-1.90625 7.453125,-1.90625 H 36.8125 V 0 H 27.59375 Q 17.1875,0 13.234375,3.875 9.28125,7.765625 9.28125,18.015625 v 29.6875 H 2.6875 V 54.6875 h 6.59375 v 15.53125 z" />
    <path
       id="DejaVuSans-101-4"
       d="m 56.203125,29.59375 v -4.390625 h -41.3125 q 0.59375,-9.28125 5.59375,-14.140625 5,-4.859375 13.9375,-4.859375 5.171875,0 10.03125,1.265625 4.859375,1.265625 9.65625,3.8125 v -8.5 q -4.84375,-2.046875 -9.921875,-3.125 -5.078125,-1.078125 -10.296875,-1.078125 -13.09375,0 -20.734375,7.609375 -7.640625,7.625 -7.640625,20.625 0,13.421875 7.25,21.296875 Q 20.015625,56 32.328125,56 q 11.03125,0 17.453125,-7.109375 6.421875,-7.09375 6.421875,-19.296875 z m -8.984375,2.640625 q -0.09375,7.359375 -4.125,11.75 -4.03125,4.40625 -10.671875,4.40625 -7.515625,0 -12.03125,-4.25 -4.515625,-4.25 -5.203125,-11.96875 z" />
    <path
       id="DejaVuSans-114-7"
       d="m 41.109375,46.296875 q -1.515625,0.875 -3.296875,1.28125 Q 36.03125,48 33.890625,48 26.265625,48 22.1875,43.046875 18.109375,38.09375 18.109375,28.8125 V 0 h -9.03125 v 54.6875 h 9.03125 v -8.5 q 2.84375,4.984375 7.375,7.390625 Q 30.03125,56 36.53125,56 q 0.921875,0 2.046875,-0.125 1.125,-0.109375 2.484375,-0.359375 z" />
    <path
       id="DejaVuSans-97-6"
       d="m 34.28125,27.484375 q -10.890625,0 -15.09375,-2.484375 -4.203125,-2.484375 -4.203125,-8.5 0,-4.78125 3.15625,-7.59375 3.15625,-2.796875 8.5625,-2.796875 7.484375,0 12,5.296875 4.515625,5.296875 4.515625,14.078125 v 2 z m 17.921875,3.71875 V 0 H 43.21875 v 8.296875 q -3.078125,-4.96875 -7.671875,-7.34375 -4.59375,-2.375 -11.234375,-2.375 -8.390625,0 -13.359375,4.71875 Q 6,8.015625 6,15.921875 q 0,9.21875 6.171875,13.90625 6.1875,4.6875 18.4375,4.6875 H 43.21875 v 0.890625 q 0,6.203125 -4.078125,9.59375 -4.078125,3.390625 -11.453125,3.390625 -4.6875,0 -9.140625,-1.125 -4.4375,-1.125 -8.53125,-3.375 v 8.3125 q 4.921875,1.90625 9.5625,2.84375 Q 24.21875,56 28.609375,56 q 11.875,0 17.734375,-6.15625 5.859375,-6.140625 5.859375,-18.640625 z" />
    <path
       id="DejaVuSans-105-5"
       d="M 9.421875,54.6875 H 18.40625 V 0 H 9.421875 Z m 0,21.296875 H 18.40625 V 64.59375 H 9.421875 Z" />
    <path
       id="DejaVuSans-111-6"
       d="m 30.609375,48.390625 q -7.21875,0 -11.421875,-5.640625 -4.203125,-5.640625 -4.203125,-15.453125 0,-9.8125 4.171875,-15.453125 4.1875,-5.640625 11.453125,-5.640625 7.1875,0 11.375,5.65625 4.203125,5.671875 4.203125,15.4375 0,9.71875 -4.203125,15.40625 -4.1875,5.6875 -11.375,5.6875 z m 0,7.609375 q 11.71875,0 18.40625,-7.625 6.703125,-7.609375 6.703125,-21.078125 0,-13.421875 -6.703125,-21.078125 -6.6875,-7.640625 -18.40625,-7.640625 -11.765625,0 -18.4375,7.640625 -6.65625,7.65625 -6.65625,21.078125 0,13.46875 6.65625,21.078125 Q 18.84375,56 30.609375,56 Z" />
    <path
       id="DejaVuSans-110-93"
       d="M 54.890625,33.015625 V 0 H 45.90625 v 32.71875 q 0,7.765625 -3.03125,11.609375 -3.03125,3.859375 -9.078125,3.859375 -7.28125,0 -11.484375,-4.640625 -4.203125,-4.625 -4.203125,-12.640625 V 0 h -9.03125 v 54.6875 h 9.03125 v -8.5 q 3.234375,4.9375 7.59375,7.375 4.375,2.4375 10.09375,2.4375 9.421875,0 14.25,-5.828125 4.84375,-5.828125 4.84375,-17.15625 z" />
    <path
       id="DejaVuSans-115-7"
       d="m 44.28125,53.078125 v -8.5 Q 40.484375,46.53125 36.375,47.5 q -4.09375,0.984375 -8.5,0.984375 -6.6875,0 -10.03125,-2.046875 Q 14.5,44.390625 14.5,40.28125 q 0,-3.125 2.390625,-4.90625 2.390625,-1.78125 9.625,-3.390625 l 3.078125,-0.6875 Q 39.15625,29.25 43.1875,25.515625 47.21875,21.78125 47.21875,15.09375 q 0,-7.625 -6.03125,-12.078125 -6.03125,-4.4375 -16.578125,-4.4375 -4.390625,0 -9.15625,0.859375 Q 10.6875,0.296875 5.421875,2 v 9.28125 q 4.984375,-2.59375 9.8125,-3.890625 4.828125,-1.28125 9.578125,-1.28125 6.34375,0 9.75,2.171875 3.421875,2.171875 3.421875,6.125 0,3.65625 -2.46875,5.609375 -2.453125,1.953125 -10.8125,3.765625 l -3.125,0.734375 q -8.34375,1.75 -12.0625,5.390625 -3.703125,3.640625 -3.703125,9.984375 0,7.71875 5.46875,11.90625 Q 16.75,56 26.8125,56 q 4.96875,0 9.359375,-0.734375 4.40625,-0.71875 8.109375,-2.1875 z" />
    <path
       d=""
       id="DejaVuSans-32-45" />
    <path
       id="DejaVuSans-40-2"
       d="M 31,75.875 Q 24.46875,64.65625 21.28125,53.65625 18.109375,42.671875 18.109375,31.390625 18.109375,20.125 21.3125,9.0625 24.515625,-2 31,-13.1875 H 23.1875 Q 15.875,-1.703125 12.234375,9.375 8.59375,20.453125 8.59375,31.390625 q 0,10.890625 3.609375,21.921875 3.625,11.046875 10.984375,22.5625 z" />
    <path
       id="DejaVuSans-120-5"
       d="M 54.890625,54.6875 35.109375,28.078125 55.90625,0 H 45.3125 L 29.390625,21.484375 13.484375,0 H 2.875 L 24.125,28.609375 4.6875,54.6875 h 10.59375 l 14.5,-19.484375 14.5,19.484375 z" />
    <path
       id="DejaVuSans-41-4"
       d="m 8.015625,75.875 h 7.8125 q 7.3125,-11.515625 10.953125,-22.5625 3.640625,-11.03125 3.640625,-21.921875 0,-10.9375 -3.640625,-22.015625 -3.640625,-11.078125 -10.953125,-22.5625 h -7.8125 Q 14.5,-2 17.703125,9.0625 20.90625,20.125 20.90625,31.390625 q 0,11.28125 -3.203125,22.265625 -3.203125,11 -9.6875,22.21875 z" />
    <path
       style="stroke:#000000;stroke-width:0.8"
       id="mc79ce39653"
       d="M 0,0 H -3.5" />
    <path
       id="DejaVuSans-8722-8"
       d="M 10.59375,35.5 H 73.1875 V 27.203125 H 10.59375 Z" />
    <path
       id="DejaVuSans-72-0"
       d="m 9.8125,72.90625 h 9.859375 V 43.015625 h 35.84375 V 72.90625 H 65.375 V 0 H 55.515625 V 34.71875 H 19.671875 V 0 H 9.8125 Z" />
    <path
       id="DejaVuSans-117-48"
       d="M 8.5,21.578125 V 54.6875 h 8.984375 V 21.921875 q 0,-7.765625 3.015625,-11.65625 3.03125,-3.875 9.09375,-3.875 7.265625,0 11.484375,4.640625 4.234375,4.640625 4.234375,12.65625 v 31 h 8.984375 V 0 H 45.3125 V 8.40625 Q 42.046875,3.421875 37.71875,1 33.40625,-1.421875 27.6875,-1.421875 18.265625,-1.421875 13.375,4.4375 8.5,10.296875 8.5,21.578125 Z M 31.109375,56 Z" />
    <path
       id="DejaVuSans-109-71"
       d="M 52,44.1875 Q 55.375,50.25 60.0625,53.125 64.75,56 71.09375,56 q 8.546875,0 13.1875,-5.984375 4.640625,-5.96875 4.640625,-17 V 0 h -9.03125 v 32.71875 q 0,7.859375 -2.796875,11.65625 -2.78125,3.8125 -8.484375,3.8125 -6.984375,0 -11.046875,-4.640625 -4.046875,-4.625 -4.046875,-12.640625 V 0 h -9.03125 v 32.71875 q 0,7.90625 -2.78125,11.6875 -2.78125,3.78125 -8.59375,3.78125 -6.890625,0 -10.953125,-4.65625 -4.046875,-4.65625 -4.046875,-12.625 V 0 h -9.03125 v 54.6875 h 9.03125 v -8.5 q 3.078125,5.03125 7.375,7.421875 Q 29.78125,56 35.6875,56 41.65625,56 45.828125,52.96875 50,49.953125 52,44.1875 Z" />
    <path
       id="DejaVuSans-83-7"
       d="m 53.515625,70.515625 v -9.625 q -5.609375,2.6875 -10.59375,4 -4.984375,1.328125 -9.625,1.328125 -8.046875,0 -12.421875,-3.125 -4.375,-3.125 -4.375,-8.890625 0,-4.84375 2.90625,-7.3125 2.90625,-2.453125 11.015625,-3.96875 L 36.375,41.703125 Q 47.40625,39.59375 52.65625,34.296875 57.90625,29 57.90625,20.125 q 0,-10.609375 -7.109375,-16.078125 -7.09375,-5.46875 -20.8125,-5.46875 -5.171875,0 -11.015625,1.171875 Q 13.140625,0.921875 6.890625,3.21875 V 13.375 q 6,-3.359375 11.765625,-5.078125 5.765625,-1.703125 11.328125,-1.703125 8.4375,0 13.03125,3.3125 4.59375,3.328125 4.59375,9.484375 0,5.359375 -3.296875,8.390625 Q 41.015625,30.8125 33.5,32.328125 L 27.484375,33.5 q -11.03125,2.1875 -15.96875,6.875 -4.921875,4.6875 -4.921875,13.046875 0,9.671875 6.8125,15.234375 6.8125,5.5625 18.765625,5.5625 5.140625,0 10.453125,-0.9375 5.328125,-0.921875 10.890625,-2.765625 z" />
    <path
       id="DejaVuSans-99-2"
       d="M 48.78125,52.59375 V 44.1875 q -3.8125,2.109375 -7.640625,3.15625 -3.828125,1.046875 -7.734375,1.046875 -8.75,0 -13.59375,-5.546875 -4.828125,-5.53125 -4.828125,-15.546875 0,-10.015625 4.828125,-15.5625 4.84375,-5.53125 13.59375,-5.53125 3.90625,0 7.734375,1.046875 3.828125,1.046875 7.640625,3.15625 v -8.3125 q -3.765625,-1.75 -7.796875,-2.625 -4.015625,-0.890625 -8.5625,-0.890625 -12.359375,0 -19.640625,7.765625 -7.265625,7.765625 -7.265625,20.953125 0,13.375 7.34375,21.03125 Q 20.21875,56 33.015625,56 q 4.140625,0 8.09375,-0.859375 3.953125,-0.84375 7.671875,-2.546875 z" />
    <clipPath
       id="p8aaf897624">
      <rect
         id="rect481"
         y="41.472"
         x="57.6"
         width="357.12"
         height="266.112" />
    </clipPath>
  </defs>
  <g
     inkscape:export-ydpi="200"
     inkscape:export-xdpi="200"
     transform="translate(-529.87777,-1.6707855)"
     id="patch_2">
    <path
       id="path9"
       style="fill:#ffffff"
       d="M 57.6,307.584 H 414.72 V 41.472 H 57.6 Z" />
  </g>
  <g
     inkscape:export-ydpi="200"
     inkscape:export-xdpi="200"
     transform="translate(-529.87777,-1.6707855)"
     id="PolyCollection_1">
    <path
       id="path12"
       style="fill:#1f77b4"
       d="M 73.832727,252.79422 V 295.488 l 20.290909,-80.68953 20.290914,-74.97027 20.2909,18.31052 20.29091,-8.72949 20.29091,-13.15265 20.29091,-6.71684 20.29091,13.48228 20.29091,-16.45368 20.29091,-12.77852 20.29091,6.69523 20.29091,-31.741495 20.29091,21.719145 20.29091,-34.53202 20.29091,-8.460478 20.2909,4.841431 20.29091,32.765447 v -23.283286 0 l -20.29091,-17.92636 -20.2909,-0.740238 -20.29091,4.004283 -20.29091,15.453955 -20.29091,-3.678384 -20.29091,15.619849 -20.29091,-6.513123 -20.29091,17.877614 -20.29091,3.51955 -20.29091,-8.70154 -20.29091,18.00695 -20.29091,26.19375 -20.29091,6.06737 -20.2909,-14.64293 -20.290914,65.45698 z"
       clip-path="url(#p16c84a2207)" />
  </g>
  <g
     inkscape:export-ydpi="200"
     inkscape:export-xdpi="200"
     transform="translate(-529.87777,-1.6707855)"
     id="PolyCollection_2">
    <path
       id="path15"
       style="fill:#ff7f0e"
       d="m 73.832727,156.01657 v 16.69307 l 20.290909,0.59038 20.290914,-23.18053 20.2909,-13.6077 20.29091,-35.03041 20.29091,-25.562261 20.29091,10.812808 20.29091,-7.435919 20.29091,-3.01799 20.29091,-15.734628 20.29091,-2.757613 20.29091,1.973667 20.29091,16.918648 20.29091,0.08846 20.29091,5.588978 20.2909,-10.3652 20.29091,0.598263 V 53.568 v 0 l -20.29091,9.59284 -20.2909,1.331921 -20.29091,-2.353536 -20.29091,0.197547 -20.29091,-5.095978 -20.29091,-0.935473 -20.29091,1.129899 -20.29091,7.6055 -20.29091,-2.535449 -20.29091,9.299921 -20.29091,-3.507231 -20.29091,18.294037 -20.29091,40.538972 -20.2909,14.36239 -20.290914,28.22274 z"
       clip-path="url(#p16c84a2207)" />
  </g>
  <g
     inkscape:export-ydpi="200"
     inkscape:export-xdpi="200"
     transform="translate(-529.87777,-1.6707855)"
     id="matplotlib.axis_1">
    <g
       id="xtick_1">
      <g
         id="line2d_1">
        <defs
           id="defs19">
          <path
             style="stroke:#000000;stroke-width:0.8"
             id="mc42d465ef2"
             d="M 0,0 V 3.5" />
        </defs>
        <g
           id="g23">
          <use
             height="100%"
             width="100%"
             id="use21"
             y="307.58401"
             xlink:href="#mc42d465ef2"
             x="73.832726"
             style="stroke:#000000;stroke-width:0.8" />
        </g>
      </g>
      <g
         id="text_1">
        <!-- 0 -->
        <defs
           id="defs27">
          <path
             id="DejaVuSans-48"
             d="m 31.78125,66.40625 q -7.609375,0 -11.453125,-7.5 Q 16.5,51.421875 16.5,36.375 q 0,-14.984375 3.828125,-22.484375 3.84375,-7.5 11.453125,-7.5 7.671875,0 11.5,7.5 3.84375,7.5 3.84375,22.484375 0,15.046875 -3.84375,22.53125 -3.828125,7.5 -11.5,7.5 z m 0,7.8125 q 12.265625,0 18.734375,-9.703125 6.46875,-9.6875 6.46875,-28.140625 0,-18.40625 -6.46875,-28.109375 -6.46875,-9.6875 -18.734375,-9.6875 -12.25,0 -18.71875,9.6875 Q 6.59375,17.96875 6.59375,36.375 q 0,18.453125 6.46875,28.140625 6.46875,9.703125 18.71875,9.703125 z" />
        </defs>
        <g
           id="g31"
           transform="matrix(0.1,0,0,-0.1,70.651477,322.18244)">
          <use
             height="100%"
             width="100%"
             y="0"
             x="0"
             id="use29"
             xlink:href="#DejaVuSans-48" />
        </g>
      </g>
    </g>
    <g
       id="xtick_2">
      <g
         id="line2d_2">
        <g
           id="g37">
          <use
             height="100%"
             width="100%"
             id="use35"
             y="307.58401"
             xlink:href="#mc42d465ef2"
             x="114.41454"
             style="stroke:#000000;stroke-width:0.8" />
        </g>
      </g>
      <g
         id="text_2">
        <!-- 2 -->
        <defs
           id="defs41">
          <path
             id="DejaVuSans-50"
             d="M 19.1875,8.296875 H 53.609375 V 0 H 7.328125 v 8.296875 q 5.609375,5.8125 15.296875,15.59375 9.703125,9.796875 12.1875,12.640625 4.734375,5.3125 6.609375,9 1.890625,3.6875 1.890625,7.25 0,5.8125 -4.078125,9.46875 -4.078125,3.671875 -10.625,3.671875 -4.640625,0 -9.796875,-1.609375 -5.140625,-1.609375 -11,-4.890625 v 9.96875 Q 13.765625,71.78125 18.9375,73 q 5.1875,1.21875 9.484375,1.21875 11.328125,0 18.0625,-5.671875 6.734375,-5.65625 6.734375,-15.125 0,-4.5 -1.6875,-8.53125 Q 49.859375,40.875 45.40625,35.40625 44.1875,33.984375 37.640625,27.21875 31.109375,20.453125 19.1875,8.296875 Z" />
        </defs>
        <g
           id="g45"
           transform="matrix(0.1,0,0,-0.1,111.23329,322.18244)">
          <use
             height="100%"
             width="100%"
             y="0"
             x="0"
             id="use43"
             xlink:href="#DejaVuSans-50" />
        </g>
      </g>
    </g>
    <g
       id="xtick_3">
      <g
         id="line2d_3">
        <g
           id="g51">
          <use
             height="100%"
             width="100%"
             id="use49"
             y="307.58401"
             xlink:href="#mc42d465ef2"
             x="154.99637"
             style="stroke:#000000;stroke-width:0.8" />
        </g>
      </g>
      <g
         id="text_3">
        <!-- 4 -->
        <defs
           id="defs55">
          <path
             id="DejaVuSans-52"
             d="M 37.796875,64.3125 12.890625,25.390625 h 24.90625 z m -2.59375,8.59375 h 12.40625 V 25.390625 h 10.40625 V 17.1875 H 47.609375 V 0 h -9.8125 V 17.1875 H 4.890625 v 9.515625 z" />
        </defs>
        <g
           id="g59"
           transform="matrix(0.1,0,0,-0.1,151.81511,322.18244)">
          <use
             height="100%"
             width="100%"
             y="0"
             x="0"
             id="use57"
             xlink:href="#DejaVuSans-52" />
        </g>
      </g>
    </g>
    <g
       id="xtick_4">
      <g
         id="line2d_4">
        <g
           id="g65">
          <use
             height="100%"
             width="100%"
             id="use63"
             y="307.58401"
             xlink:href="#mc42d465ef2"
             x="195.57819"
             style="stroke:#000000;stroke-width:0.8" />
        </g>
      </g>
      <g
         id="text_4">
        <!-- 6 -->
        <defs
           id="defs69">
          <path
             id="DejaVuSans-54"
             d="m 33.015625,40.375 q -6.640625,0 -10.53125,-4.546875 -3.875,-4.53125 -3.875,-12.4375 0,-7.859375 3.875,-12.4375 3.890625,-4.5625 10.53125,-4.5625 6.640625,0 10.515625,4.5625 3.875,4.578125 3.875,12.4375 0,7.90625 -3.875,12.4375 Q 39.65625,40.375 33.015625,40.375 Z M 52.59375,71.296875 V 62.3125 q -3.71875,1.75 -7.5,2.671875 -3.78125,0.9375 -7.5,0.9375 -9.765625,0 -14.921875,-6.59375 -5.140625,-6.59375 -5.875,-19.921875 2.875,4.25 7.21875,6.515625 4.359375,2.265625 9.578125,2.265625 10.984375,0 17.359375,-6.671875 6.375,-6.65625 6.375,-18.125 0,-11.234375 -6.640625,-18.03125 -6.640625,-6.78125 -17.671875,-6.78125 -12.65625,0 -19.34375,9.6875 -6.6875,9.703125 -6.6875,28.109375 0,17.28125 8.203125,27.5625 8.203125,10.28125 22.015625,10.28125 3.71875,0 7.5,-0.734375 3.78125,-0.734375 7.890625,-2.1875 z" />
        </defs>
        <g
           id="g73"
           transform="matrix(0.1,0,0,-0.1,192.39693,322.18244)">
          <use
             height="100%"
             width="100%"
             y="0"
             x="0"
             id="use71"
             xlink:href="#DejaVuSans-54" />
        </g>
      </g>
    </g>
    <g
       id="xtick_5">
      <g
         id="line2d_5">
        <g
           id="g79">
          <use
             height="100%"
             width="100%"
             id="use77"
             y="307.58401"
             xlink:href="#mc42d465ef2"
             x="236.16"
             style="stroke:#000000;stroke-width:0.8" />
        </g>
      </g>
      <g
         id="text_5">
        <!-- 8 -->
        <defs
           id="defs83">
          <path
             id="DejaVuSans-56"
             d="m 31.78125,34.625 q -7.03125,0 -11.0625,-3.765625 -4.015625,-3.765625 -4.015625,-10.34375 0,-6.59375 4.015625,-10.359375 4.03125,-3.765625 11.0625,-3.765625 7.03125,0 11.078125,3.78125 4.0625,3.796875 4.0625,10.34375 0,6.578125 -4.03125,10.34375 Q 38.875,34.625 31.78125,34.625 Z m -9.859375,4.1875 Q 15.578125,40.375 12.03125,44.71875 8.5,49.078125 8.5,55.328125 q 0,8.734375 6.21875,13.8125 6.234375,5.078125 17.0625,5.078125 10.890625,0 17.09375,-5.078125 6.203125,-5.078125 6.203125,-13.8125 0,-6.25 -3.546875,-10.609375 Q 48,40.375 41.703125,38.8125 q 7.125,-1.65625 11.09375,-6.5 3.984375,-4.828125 3.984375,-11.796875 0,-10.609375 -6.46875,-16.28125 -6.46875,-5.65625 -18.53125,-5.65625 -12.046875,0 -18.53125,5.65625 -6.46875,5.671875 -6.46875,16.28125 0,6.96875 4,11.796875 4.015625,4.84375 11.140625,6.5 z M 18.3125,54.390625 q 0,-5.65625 3.53125,-8.828125 3.546875,-3.171875 9.9375,-3.171875 6.359375,0 9.9375,3.171875 3.59375,3.171875 3.59375,8.828125 0,5.671875 -3.59375,8.84375 -3.578125,3.171875 -9.9375,3.171875 -6.390625,0 -9.9375,-3.171875 Q 18.3125,60.0625 18.3125,54.390625 Z" />
        </defs>
        <g
           id="g87"
           transform="matrix(0.1,0,0,-0.1,232.97875,322.18244)">
          <use
             height="100%"
             width="100%"
             y="0"
             x="0"
             id="use85"
             xlink:href="#DejaVuSans-56" />
        </g>
      </g>
    </g>
    <g
       id="xtick_6">
      <g
         id="line2d_6">
        <g
           id="g93">
          <use
             height="100%"
             width="100%"
             id="use91"
             y="307.58401"
             xlink:href="#mc42d465ef2"
             x="276.74182"
             style="stroke:#000000;stroke-width:0.8" />
        </g>
      </g>
      <g
         id="text_6">
        <!-- 10 -->
        <defs
           id="defs97">
          <path
             id="DejaVuSans-49"
             d="m 12.40625,8.296875 h 16.109375 v 55.625 L 10.984375,60.40625 v 8.984375 l 17.4375,3.515625 H 38.28125 V 8.296875 H 54.390625 V 0 H 12.40625 Z" />
        </defs>
        <g
           id="g103"
           transform="matrix(0.1,0,0,-0.1,270.37932,322.18244)">
          <use
             height="100%"
             width="100%"
             y="0"
             x="0"
             id="use99"
             xlink:href="#DejaVuSans-49" />
          <use
             height="100%"
             width="100%"
             y="0"
             id="use101"
             xlink:href="#DejaVuSans-48"
             x="63.623047" />
        </g>
      </g>
    </g>
    <g
       id="xtick_7">
      <g
         id="line2d_7">
        <g
           id="g109">
          <use
             height="100%"
             width="100%"
             id="use107"
             y="307.58401"
             xlink:href="#mc42d465ef2"
             x="317.32364"
             style="stroke:#000000;stroke-width:0.8" />
        </g>
      </g>
      <g
         id="text_7">
        <!-- 12 -->
        <g
           id="g116"
           transform="matrix(0.1,0,0,-0.1,310.96114,322.18244)">
          <use
             height="100%"
             width="100%"
             y="0"
             x="0"
             id="use112"
             xlink:href="#DejaVuSans-49" />
          <use
             height="100%"
             width="100%"
             y="0"
             id="use114"
             xlink:href="#DejaVuSans-50"
             x="63.623047" />
        </g>
      </g>
    </g>
    <g
       id="xtick_8">
      <g
         id="line2d_8">
        <g
           id="g122">
          <use
             height="100%"
             width="100%"
             id="use120"
             y="307.58401"
             xlink:href="#mc42d465ef2"
             x="357.90546"
             style="stroke:#000000;stroke-width:0.8" />
        </g>
      </g>
      <g
         id="text_8">
        <!-- 14 -->
        <g
           id="g129"
           transform="matrix(0.1,0,0,-0.1,351.54295,322.18244)">
          <use
             height="100%"
             width="100%"
             y="0"
             x="0"
             id="use125"
             xlink:href="#DejaVuSans-49" />
          <use
             height="100%"
             width="100%"
             y="0"
             id="use127"
             xlink:href="#DejaVuSans-52"
             x="63.623047" />
        </g>
      </g>
    </g>
    <g
       id="xtick_9">
      <g
         id="line2d_9">
        <g
           id="g135">
          <use
             height="100%"
             width="100%"
             id="use133"
             y="307.58401"
             xlink:href="#mc42d465ef2"
             x="398.48727"
             style="stroke:#000000;stroke-width:0.8" />
        </g>
      </g>
      <g
         id="text_9">
        <!-- 16 -->
        <g
           id="g142"
           transform="matrix(0.1,0,0,-0.1,392.12477,322.18244)">
          <use
             height="100%"
             width="100%"
             y="0"
             x="0"
             id="use138"
             xlink:href="#DejaVuSans-49" />
          <use
             height="100%"
             width="100%"
             y="0"
             id="use140"
             xlink:href="#DejaVuSans-54"
             x="63.623047" />
        </g>
      </g>
    </g>
    <g
       id="text_10">
      <!-- Iterations (x100) -->
      <defs
         id="defs159">
        <path
           id="DejaVuSans-73"
           d="m 9.8125,72.90625 h 9.859375 V 0 H 9.8125 Z" />
        <path
           id="DejaVuSans-116"
           d="M 18.3125,70.21875 V 54.6875 h 18.5 v -6.984375 h -18.5 v -29.6875 q 0,-6.6875 1.828125,-8.59375 1.828125,-1.90625 7.453125,-1.90625 H 36.8125 V 0 H 27.59375 Q 17.1875,0 13.234375,3.875 9.28125,7.765625 9.28125,18.015625 v 29.6875 H 2.6875 V 54.6875 h 6.59375 v 15.53125 z" />
        <path
           id="DejaVuSans-101"
           d="m 56.203125,29.59375 v -4.390625 h -41.3125 q 0.59375,-9.28125 5.59375,-14.140625 5,-4.859375 13.9375,-4.859375 5.171875,0 10.03125,1.265625 4.859375,1.265625 9.65625,3.8125 v -8.5 q -4.84375,-2.046875 -9.921875,-3.125 -5.078125,-1.078125 -10.296875,-1.078125 -13.09375,0 -20.734375,7.609375 -7.640625,7.625 -7.640625,20.625 0,13.421875 7.25,21.296875 Q 20.015625,56 32.328125,56 q 11.03125,0 17.453125,-7.109375 6.421875,-7.09375 6.421875,-19.296875 z m -8.984375,2.640625 q -0.09375,7.359375 -4.125,11.75 -4.03125,4.40625 -10.671875,4.40625 -7.515625,0 -12.03125,-4.25 -4.515625,-4.25 -5.203125,-11.96875 z" />
        <path
           id="DejaVuSans-114"
           d="m 41.109375,46.296875 q -1.515625,0.875 -3.296875,1.28125 Q 36.03125,48 33.890625,48 26.265625,48 22.1875,43.046875 18.109375,38.09375 18.109375,28.8125 V 0 h -9.03125 v 54.6875 h 9.03125 v -8.5 q 2.84375,4.984375 7.375,7.390625 Q 30.03125,56 36.53125,56 q 0.921875,0 2.046875,-0.125 1.125,-0.109375 2.484375,-0.359375 z" />
        <path
           id="DejaVuSans-97"
           d="m 34.28125,27.484375 q -10.890625,0 -15.09375,-2.484375 -4.203125,-2.484375 -4.203125,-8.5 0,-4.78125 3.15625,-7.59375 3.15625,-2.796875 8.5625,-2.796875 7.484375,0 12,5.296875 4.515625,5.296875 4.515625,14.078125 v 2 z m 17.921875,3.71875 V 0 H 43.21875 v 8.296875 q -3.078125,-4.96875 -7.671875,-7.34375 -4.59375,-2.375 -11.234375,-2.375 -8.390625,0 -13.359375,4.71875 Q 6,8.015625 6,15.921875 q 0,9.21875 6.171875,13.90625 6.1875,4.6875 18.4375,4.6875 H 43.21875 v 0.890625 q 0,6.203125 -4.078125,9.59375 -4.078125,3.390625 -11.453125,3.390625 -4.6875,0 -9.140625,-1.125 -4.4375,-1.125 -8.53125,-3.375 v 8.3125 q 4.921875,1.90625 9.5625,2.84375 Q 24.21875,56 28.609375,56 q 11.875,0 17.734375,-6.15625 5.859375,-6.140625 5.859375,-18.640625 z" />
        <path
           id="DejaVuSans-105"
           d="M 9.421875,54.6875 H 18.40625 V 0 H 9.421875 Z m 0,21.296875 H 18.40625 V 64.59375 H 9.421875 Z" />
        <path
           id="DejaVuSans-111"
           d="m 30.609375,48.390625 q -7.21875,0 -11.421875,-5.640625 -4.203125,-5.640625 -4.203125,-15.453125 0,-9.8125 4.171875,-15.453125 4.1875,-5.640625 11.453125,-5.640625 7.1875,0 11.375,5.65625 4.203125,5.671875 4.203125,15.4375 0,9.71875 -4.203125,15.40625 -4.1875,5.6875 -11.375,5.6875 z m 0,7.609375 q 11.71875,0 18.40625,-7.625 6.703125,-7.609375 6.703125,-21.078125 0,-13.421875 -6.703125,-21.078125 -6.6875,-7.640625 -18.40625,-7.640625 -11.765625,0 -18.4375,7.640625 -6.65625,7.65625 -6.65625,21.078125 0,13.46875 6.65625,21.078125 Q 18.84375,56 30.609375,56 Z" />
        <path
           id="DejaVuSans-110"
           d="M 54.890625,33.015625 V 0 H 45.90625 v 32.71875 q 0,7.765625 -3.03125,11.609375 -3.03125,3.859375 -9.078125,3.859375 -7.28125,0 -11.484375,-4.640625 -4.203125,-4.625 -4.203125,-12.640625 V 0 h -9.03125 v 54.6875 h 9.03125 v -8.5 q 3.234375,4.9375 7.59375,7.375 4.375,2.4375 10.09375,2.4375 9.421875,0 14.25,-5.828125 4.84375,-5.828125 4.84375,-17.15625 z" />
        <path
           id="DejaVuSans-115"
           d="m 44.28125,53.078125 v -8.5 Q 40.484375,46.53125 36.375,47.5 q -4.09375,0.984375 -8.5,0.984375 -6.6875,0 -10.03125,-2.046875 Q 14.5,44.390625 14.5,40.28125 q 0,-3.125 2.390625,-4.90625 2.390625,-1.78125 9.625,-3.390625 l 3.078125,-0.6875 Q 39.15625,29.25 43.1875,25.515625 47.21875,21.78125 47.21875,15.09375 q 0,-7.625 -6.03125,-12.078125 -6.03125,-4.4375 -16.578125,-4.4375 -4.390625,0 -9.15625,0.859375 Q 10.6875,0.296875 5.421875,2 v 9.28125 q 4.984375,-2.59375 9.8125,-3.890625 4.828125,-1.28125 9.578125,-1.28125 6.34375,0 9.75,2.171875 3.421875,2.171875 3.421875,6.125 0,3.65625 -2.46875,5.609375 -2.453125,1.953125 -10.8125,3.765625 l -3.125,0.734375 q -8.34375,1.75 -12.0625,5.390625 -3.703125,3.640625 -3.703125,9.984375 0,7.71875 5.46875,11.90625 Q 16.75,56 26.8125,56 q 4.96875,0 9.359375,-0.734375 4.40625,-0.71875 8.109375,-2.1875 z" />
        <path
           d=""
           id="DejaVuSans-32" />
        <path
           id="DejaVuSans-40"
           d="M 31,75.875 Q 24.46875,64.65625 21.28125,53.65625 18.109375,42.671875 18.109375,31.390625 18.109375,20.125 21.3125,9.0625 24.515625,-2 31,-13.1875 H 23.1875 Q 15.875,-1.703125 12.234375,9.375 8.59375,20.453125 8.59375,31.390625 q 0,10.890625 3.609375,21.921875 3.625,11.046875 10.984375,22.5625 z" />
        <path
           id="DejaVuSans-120"
           d="M 54.890625,54.6875 35.109375,28.078125 55.90625,0 H 45.3125 L 29.390625,21.484375 13.484375,0 H 2.875 L 24.125,28.609375 4.6875,54.6875 h 10.59375 l 14.5,-19.484375 14.5,19.484375 z" />
        <path
           id="DejaVuSans-41"
           d="m 8.015625,75.875 h 7.8125 q 7.3125,-11.515625 10.953125,-22.5625 3.640625,-11.03125 3.640625,-21.921875 0,-10.9375 -3.640625,-22.015625 -3.640625,-11.078125 -10.953125,-22.5625 h -7.8125 Q 14.5,-2 17.703125,9.0625 20.90625,20.125 20.90625,31.390625 q 0,11.28125 -3.203125,22.265625 -3.203125,11 -9.6875,22.21875 z" />
      </defs>
      <g
         id="g195"
         transform="matrix(0.1,0,0,-0.1,194.35297,335.86056)">
        <use
           height="100%"
           width="100%"
           y="0"
           x="0"
           id="use161"
           xlink:href="#DejaVuSans-73" />
        <use
           height="100%"
           width="100%"
           y="0"
           id="use163"
           xlink:href="#DejaVuSans-116"
           x="29.492188" />
        <use
           height="100%"
           width="100%"
           y="0"
           id="use165"
           xlink:href="#DejaVuSans-101"
           x="68.701172" />
        <use
           height="100%"
           width="100%"
           y="0"
           id="use167"
           xlink:href="#DejaVuSans-114"
           x="130.22461" />
        <use
           height="100%"
           width="100%"
           y="0"
           id="use169"
           xlink:href="#DejaVuSans-97"
           x="171.33789" />
        <use
           height="100%"
           width="100%"
           y="0"
           id="use171"
           xlink:href="#DejaVuSans-116"
           x="232.61719" />
        <use
           height="100%"
           width="100%"
           y="0"
           id="use173"
           xlink:href="#DejaVuSans-105"
           x="271.82617" />
        <use
           height="100%"
           width="100%"
           y="0"
           id="use175"
           xlink:href="#DejaVuSans-111"
           x="299.60938" />
        <use
           height="100%"
           width="100%"
           y="0"
           id="use177"
           xlink:href="#DejaVuSans-110"
           x="360.79102" />
        <use
           height="100%"
           width="100%"
           y="0"
           id="use179"
           xlink:href="#DejaVuSans-115"
           x="424.16992" />
        <use
           height="100%"
           width="100%"
           y="0"
           id="use181"
           xlink:href="#DejaVuSans-32"
           x="476.26953" />
        <use
           height="100%"
           width="100%"
           y="0"
           id="use183"
           xlink:href="#DejaVuSans-40"
           x="508.05664" />
        <use
           height="100%"
           width="100%"
           y="0"
           id="use185"
           xlink:href="#DejaVuSans-120"
           x="547.07031" />
        <use
           height="100%"
           width="100%"
           y="0"
           id="use187"
           xlink:href="#DejaVuSans-49"
           x="606.25" />
        <use
           height="100%"
           width="100%"
           y="0"
           id="use189"
           xlink:href="#DejaVuSans-48"
           x="669.87305" />
        <use
           height="100%"
           width="100%"
           y="0"
           id="use191"
           xlink:href="#DejaVuSans-48"
           x="733.49609" />
        <use
           height="100%"
           width="100%"
           y="0"
           id="use193"
           xlink:href="#DejaVuSans-41"
           x="797.11914" />
      </g>
    </g>
  </g>
  <g
     inkscape:export-ydpi="200"
     inkscape:export-xdpi="200"
     transform="translate(-529.87777,-1.6707855)"
     id="matplotlib.axis_2">
    <g
       id="ytick_1">
      <g
         id="line2d_10">
        <defs
           id="defs200">
          <path
             style="stroke:#000000;stroke-width:0.8"
             id="ma29030e47c"
             d="M 0,0 H -3.5" />
        </defs>
        <g
           id="g204">
          <use
             height="100%"
             width="100%"
             id="use202"
             y="251.16661"
             xlink:href="#ma29030e47c"
             x="57.599998"
             style="stroke:#000000;stroke-width:0.8" />
        </g>
      </g>
      <g
         id="text_11">
        <!-- 400 -->
        <defs
           id="defs208">
          <path
             id="DejaVuSans-8722"
             d="M 10.59375,35.5 H 73.1875 V 27.203125 H 10.59375 Z" />
        </defs>
        <g
           id="g218"
           transform="matrix(0.1,0,0,-0.1,23.132812,254.96583)">
          <use
             height="100%"
             width="100%"
             y="0"
             x="0"
             id="use210"
             xlink:href="#DejaVuSans-8722" />
          <use
             height="100%"
             width="100%"
             y="0"
             id="use212"
             xlink:href="#DejaVuSans-52"
             x="83.789062" />
          <use
             height="100%"
             width="100%"
             y="0"
             id="use214"
             xlink:href="#DejaVuSans-48"
             x="147.41211" />
          <use
             height="100%"
             width="100%"
             y="0"
             id="use216"
             xlink:href="#DejaVuSans-48"
             x="211.03516" />
        </g>
      </g>
    </g>
    <g
       id="ytick_2">
      <g
         id="line2d_11">
        <g
           id="g224">
          <use
             height="100%"
             width="100%"
             id="use222"
             y="192.10687"
             xlink:href="#ma29030e47c"
             x="57.599998"
             style="stroke:#000000;stroke-width:0.8" />
        </g>
      </g>
      <g
         id="text_12">
        <!-- 200 -->
        <g
           id="g235"
           transform="matrix(0.1,0,0,-0.1,23.132812,195.90609)">
          <use
             height="100%"
             width="100%"
             y="0"
             x="0"
             id="use227"
             xlink:href="#DejaVuSans-8722" />
          <use
             height="100%"
             width="100%"
             y="0"
             id="use229"
             xlink:href="#DejaVuSans-50"
             x="83.789062" />
          <use
             height="100%"
             width="100%"
             y="0"
             id="use231"
             xlink:href="#DejaVuSans-48"
             x="147.41211" />
          <use
             height="100%"
             width="100%"
             y="0"
             id="use233"
             xlink:href="#DejaVuSans-48"
             x="211.03516" />
        </g>
      </g>
    </g>
    <g
       id="ytick_3">
      <g
         id="line2d_12">
        <g
           id="g241">
          <use
             height="100%"
             width="100%"
             id="use239"
             y="133.04712"
             xlink:href="#ma29030e47c"
             x="57.599998"
             style="stroke:#000000;stroke-width:0.8" />
        </g>
      </g>
      <g
         id="text_13">
        <!-- 0 -->
        <g
           id="g246"
           transform="matrix(0.1,0,0,-0.1,44.2375,136.84634)">
          <use
             height="100%"
             width="100%"
             y="0"
             x="0"
             id="use244"
             xlink:href="#DejaVuSans-48" />
        </g>
      </g>
    </g>
    <g
       id="ytick_4">
      <g
         id="line2d_13">
        <g
           id="g252">
          <use
             height="100%"
             width="100%"
             id="use250"
             y="73.987373"
             xlink:href="#ma29030e47c"
             x="57.599998"
             style="stroke:#000000;stroke-width:0.8" />
        </g>
      </g>
      <g
         id="text_14">
        <!-- 200 -->
        <g
           id="g261"
           transform="matrix(0.1,0,0,-0.1,31.5125,77.78659)">
          <use
             height="100%"
             width="100%"
             y="0"
             x="0"
             id="use255"
             xlink:href="#DejaVuSans-50" />
          <use
             height="100%"
             width="100%"
             y="0"
             id="use257"
             xlink:href="#DejaVuSans-48"
             x="63.623047" />
          <use
             height="100%"
             width="100%"
             y="0"
             id="use259"
             xlink:href="#DejaVuSans-48"
             x="127.24609" />
        </g>
      </g>
    </g>
    <g
       id="text_15">
      <!-- Human Score -->
      <defs
         id="defs270">
        <path
           id="DejaVuSans-72"
           d="m 9.8125,72.90625 h 9.859375 V 43.015625 h 35.84375 V 72.90625 H 65.375 V 0 H 55.515625 V 34.71875 H 19.671875 V 0 H 9.8125 Z" />
        <path
           id="DejaVuSans-117"
           d="M 8.5,21.578125 V 54.6875 h 8.984375 V 21.921875 q 0,-7.765625 3.015625,-11.65625 3.03125,-3.875 9.09375,-3.875 7.265625,0 11.484375,4.640625 4.234375,4.640625 4.234375,12.65625 v 31 h 8.984375 V 0 H 45.3125 V 8.40625 Q 42.046875,3.421875 37.71875,1 33.40625,-1.421875 27.6875,-1.421875 18.265625,-1.421875 13.375,4.4375 8.5,10.296875 8.5,21.578125 Z M 31.109375,56 Z" />
        <path
           id="DejaVuSans-109"
           d="M 52,44.1875 Q 55.375,50.25 60.0625,53.125 64.75,56 71.09375,56 q 8.546875,0 13.1875,-5.984375 4.640625,-5.96875 4.640625,-17 V 0 h -9.03125 v 32.71875 q 0,7.859375 -2.796875,11.65625 -2.78125,3.8125 -8.484375,3.8125 -6.984375,0 -11.046875,-4.640625 -4.046875,-4.625 -4.046875,-12.640625 V 0 h -9.03125 v 32.71875 q 0,7.90625 -2.78125,11.6875 -2.78125,3.78125 -8.59375,3.78125 -6.890625,0 -10.953125,-4.65625 -4.046875,-4.65625 -4.046875,-12.625 V 0 h -9.03125 v 54.6875 h 9.03125 v -8.5 q 3.078125,5.03125 7.375,7.421875 Q 29.78125,56 35.6875,56 41.65625,56 45.828125,52.96875 50,49.953125 52,44.1875 Z" />
        <path
           id="DejaVuSans-83"
           d="m 53.515625,70.515625 v -9.625 q -5.609375,2.6875 -10.59375,4 -4.984375,1.328125 -9.625,1.328125 -8.046875,0 -12.421875,-3.125 -4.375,-3.125 -4.375,-8.890625 0,-4.84375 2.90625,-7.3125 2.90625,-2.453125 11.015625,-3.96875 L 36.375,41.703125 Q 47.40625,39.59375 52.65625,34.296875 57.90625,29 57.90625,20.125 q 0,-10.609375 -7.109375,-16.078125 -7.09375,-5.46875 -20.8125,-5.46875 -5.171875,0 -11.015625,1.171875 Q 13.140625,0.921875 6.890625,3.21875 V 13.375 q 6,-3.359375 11.765625,-5.078125 5.765625,-1.703125 11.328125,-1.703125 8.4375,0 13.03125,3.3125 4.59375,3.328125 4.59375,9.484375 0,5.359375 -3.296875,8.390625 Q 41.015625,30.8125 33.5,32.328125 L 27.484375,33.5 q -11.03125,2.1875 -15.96875,6.875 -4.921875,4.6875 -4.921875,13.046875 0,9.671875 6.8125,15.234375 6.8125,5.5625 18.765625,5.5625 5.140625,0 10.453125,-0.9375 5.328125,-0.921875 10.890625,-2.765625 z" />
        <path
           id="DejaVuSans-99"
           d="M 48.78125,52.59375 V 44.1875 q -3.8125,2.109375 -7.640625,3.15625 -3.828125,1.046875 -7.734375,1.046875 -8.75,0 -13.59375,-5.546875 -4.828125,-5.53125 -4.828125,-15.546875 0,-10.015625 4.828125,-15.5625 4.84375,-5.53125 13.59375,-5.53125 3.90625,0 7.734375,1.046875 3.828125,1.046875 7.640625,3.15625 v -8.3125 q -3.765625,-1.75 -7.796875,-2.625 -4.015625,-0.890625 -8.5625,-0.890625 -12.359375,0 -19.640625,7.765625 -7.265625,7.765625 -7.265625,20.953125 0,13.375 7.34375,21.03125 Q 20.21875,56 33.015625,56 q 4.140625,0 8.09375,-0.859375 3.953125,-0.84375 7.671875,-2.546875 z" />
      </defs>
      <g
         id="g294"
         transform="matrix(0,-0.1,-0.1,0,17.053125,208.26237)">
        <use
           height="100%"
           width="100%"
           y="0"
           x="0"
           id="use272"
           xlink:href="#DejaVuSans-72" />
        <use
           height="100%"
           width="100%"
           y="0"
           id="use274"
           xlink:href="#DejaVuSans-117"
           x="75.195312" />
        <use
           height="100%"
           width="100%"
           y="0"
           id="use276"
           xlink:href="#DejaVuSans-109"
           x="138.57422" />
        <use
           height="100%"
           width="100%"
           y="0"
           id="use278"
           xlink:href="#DejaVuSans-97"
           x="235.98633" />
        <use
           height="100%"
           width="100%"
           y="0"
           id="use280"
           xlink:href="#DejaVuSans-110"
           x="297.26562" />
        <use
           height="100%"
           width="100%"
           y="0"
           id="use282"
           xlink:href="#DejaVuSans-32"
           x="360.64453" />
        <use
           height="100%"
           width="100%"
           y="0"
           id="use284"
           xlink:href="#DejaVuSans-83"
           x="392.43164" />
        <use
           height="100%"
           width="100%"
           y="0"
           id="use286"
           xlink:href="#DejaVuSans-99"
           x="455.9082" />
        <use
           height="100%"
           width="100%"
           y="0"
           id="use288"
           xlink:href="#DejaVuSans-111"
           x="510.88867" />
        <use
           height="100%"
           width="100%"
           y="0"
           id="use290"
           xlink:href="#DejaVuSans-114"
           x="572.07031" />
        <use
           height="100%"
           width="100%"
           y="0"
           id="use292"
           xlink:href="#DejaVuSans-101"
           x="613.15234" />
      </g>
    </g>
  </g>
  <g
     inkscape:export-ydpi="200"
     inkscape:export-xdpi="200"
     transform="translate(-529.87777,-1.6707855)"
     id="patch_3">
    <path
       id="path298"
       style="fill:none;stroke:#000000;stroke-width:0.8;stroke-linecap:square;stroke-linejoin:miter"
       d="M 57.6,307.584 V 41.472" />
  </g>
  <g
     inkscape:export-ydpi="200"
     inkscape:export-xdpi="200"
     transform="translate(-529.87777,-1.6707855)"
     id="patch_5">
    <path
       id="path304"
       style="fill:none;stroke:#000000;stroke-width:0.8;stroke-linecap:square;stroke-linejoin:miter"
       d="M 57.6,307.584 H 414.72" />
  </g>
  <defs
     id="defs422">
    <clipPath
       id="p16c84a2207">
      <rect
         id="rect419"
         y="41.472"
         x="57.6"
         width="357.12"
         height="266.112" />
    </clipPath>
  </defs>
  <path
     id="use407"
     d=""
     style="stroke-width:0.1" />
  <path
     id="use427"
     d=""
     style="stroke-width:0.1" />
  <path
     id="use450"
     d=""
     style="stroke-width:0.1" />
  <path
     id="use469"
     d=""
     style="stroke-width:0.1" />
  <text
     inkscape:export-ydpi="200"
     inkscape:export-xdpi="200"
     id="text368-7-1"
     y="34.58773"
     x="-400.45679"
     style="font-style:normal;font-weight:normal;font-size:30px;line-height:1.25;font-family:sans-serif;fill:#000000;fill-opacity:1;stroke:none;stroke-width:0.75;stroke-linecap:butt;stroke-linejoin:round"
     xml:space="preserve"><tspan
       style="font-size:14px;stroke-width:0.75"
       y="34.58773"
       x="-400.45679"
       id="tspan366-5-4"
       sodipodi:role="line">Human Learns from <tspan
   style="font-style:italic"
   id="tspan1724">RL (DQN)</tspan></tspan></text>
  <g
     id="line2d_14-8"
     transform="translate(9.4811013,694.97316)" />
  <g
     id="line2d_16-8"
     transform="translate(9.4811013,694.97316)" />
  <text
     inkscape:export-ydpi="200"
     inkscape:export-xdpi="200"
     xml:space="preserve"
     style="font-style:normal;font-weight:normal;font-size:30px;line-height:1.25;font-family:sans-serif;fill:#000000;fill-opacity:1;stroke:none;stroke-width:0.75;stroke-linecap:butt;stroke-linejoin:round"
     x="-396.19604"
     y="251.73729"
     id="text368-2"><tspan
       sodipodi:role="line"
       id="tspan366-0"
       x="-396.19604"
       y="251.73729"
       style="font-size:14px;stroke-width:0.75"><tspan
   id="tspan2675"
   style="font-style:italic">no</tspan> shared autonomy [DQN Baseline]</tspan></text>
  <text
     inkscape:export-ydpi="200"
     inkscape:export-xdpi="200"
     id="text368-3-8"
     y="282.39328"
     x="-395.48511"
     style="font-style:normal;font-weight:normal;font-size:30px;line-height:1.25;font-family:sans-serif;fill:#000000;fill-opacity:1;stroke:none;stroke-width:0.75;stroke-linecap:butt;stroke-linejoin:round"
     xml:space="preserve"><tspan
       style="font-size:14px;stroke-width:0.75"
       y="282.39328"
       x="-395.48511"
       id="tspan366-6-9"
       sodipodi:role="line"><tspan
   id="tspan2677"
   style="font-style:italic">adaptive</tspan> shared autonomy [Full to None]</tspan></text>
  <g
     inkscape:export-ydpi="200"
     inkscape:export-xdpi="200"
     id="patch_8-4-6"
     transform="matrix(1.0000125,0,0,2.6785715,-493.74464,23.071305)"
     style="stroke-linecap:butt;stroke-linejoin:round">
    <path
       d="m 66.6,87.426688 h 20 v -7 h -20 z"
       style="fill:#1f77b4"
       id="path307-6" />
  </g>
  <g
     inkscape:export-ydpi="200"
     inkscape:export-xdpi="200"
     id="patch_9-3-4"
     transform="matrix(0.99999998,0,0,2.6785726,-493.74368,14.410805)"
     style="stroke-linecap:butt;stroke-linejoin:round">
    <path
       d="m 66.6,102.10481 h 20 v -6.999997 h -20 z"
       style="fill:#ff7f0e"
       id="path332-9" />
  </g>
</svg>
