<?xml version="1.0" encoding="utf-8" standalone="no"?>
<!DOCTYPE svg PUBLIC "-//W3C//DTD SVG 1.1//EN"
  "http://www.w3.org/Graphics/SVG/1.1/DTD/svg11.dtd">
<!-- Created with matplotlib (https://matplotlib.org/) -->
<svg height="345.6pt" version="1.1" viewBox="0 0 460.8 345.6" width="460.8pt" xmlns="http://www.w3.org/2000/svg" xmlns:xlink="http://www.w3.org/1999/xlink">
 <defs>
  <style type="text/css">
*{stroke-linecap:butt;stroke-linejoin:round;}
  </style>
 </defs>
 <g id="figure_1">
  <g id="patch_1">
   <path d="M 0 345.6 
L 460.8 345.6 
L 460.8 0 
L 0 0 
z
" style="fill:#ffffff;"/>
  </g>
  <g id="axes_1">
   <g id="patch_2">
    <path d="M 57.6 307.584 
L 414.72 307.584 
L 414.72 41.472 
L 57.6 41.472 
z
" style="fill:#ffffff;"/>
   </g>
   <g id="matplotlib.axis_1">
    <g id="xtick_1">
     <g id="line2d_1">
      <defs>
       <path d="M 0 0 
L 0 3.5 
" id="m285d43dada" style="stroke:#000000;stroke-width:0.8;"/>
      </defs>
      <g>
       <use style="stroke:#000000;stroke-width:0.8;" x="73.832727" xlink:href="#m285d43dada" y="307.584"/>
      </g>
     </g>
     <g id="text_1">
      <!-- 0.0 -->
      <defs>
       <path d="M 31.78125 66.40625 
Q 24.171875 66.40625 20.328125 58.90625 
Q 16.5 51.421875 16.5 36.375 
Q 16.5 21.390625 20.328125 13.890625 
Q 24.171875 6.390625 31.78125 6.390625 
Q 39.453125 6.390625 43.28125 13.890625 
Q 47.125 21.390625 47.125 36.375 
Q 47.125 51.421875 43.28125 58.90625 
Q 39.453125 66.40625 31.78125 66.40625 
z
M 31.78125 74.21875 
Q 44.046875 74.21875 50.515625 64.515625 
Q 56.984375 54.828125 56.984375 36.375 
Q 56.984375 17.96875 50.515625 8.265625 
Q 44.046875 -1.421875 31.78125 -1.421875 
Q 19.53125 -1.421875 13.0625 8.265625 
Q 6.59375 17.96875 6.59375 36.375 
Q 6.59375 54.828125 13.0625 64.515625 
Q 19.53125 74.21875 31.78125 74.21875 
z
" id="DejaVuSans-48"/>
       <path d="M 10.6875 12.40625 
L 21 12.40625 
L 21 0 
L 10.6875 0 
z
" id="DejaVuSans-46"/>
      </defs>
      <g transform="translate(65.881165 322.182437)scale(0.1 -0.1)">
       <use xlink:href="#DejaVuSans-48"/>
       <use x="63.623047" xlink:href="#DejaVuSans-46"/>
       <use x="95.410156" xlink:href="#DejaVuSans-48"/>
      </g>
     </g>
    </g>
    <g id="xtick_2">
     <g id="line2d_2">
      <g>
       <use style="stroke:#000000;stroke-width:0.8;" x="138.763636" xlink:href="#m285d43dada" y="307.584"/>
      </g>
     </g>
     <g id="text_2">
      <!-- 0.2 -->
      <defs>
       <path d="M 19.1875 8.296875 
L 53.609375 8.296875 
L 53.609375 0 
L 7.328125 0 
L 7.328125 8.296875 
Q 12.9375 14.109375 22.625 23.890625 
Q 32.328125 33.6875 34.8125 36.53125 
Q 39.546875 41.84375 41.421875 45.53125 
Q 43.3125 49.21875 43.3125 52.78125 
Q 43.3125 58.59375 39.234375 62.25 
Q 35.15625 65.921875 28.609375 65.921875 
Q 23.96875 65.921875 18.8125 64.3125 
Q 13.671875 62.703125 7.8125 59.421875 
L 7.8125 69.390625 
Q 13.765625 71.78125 18.9375 73 
Q 24.125 74.21875 28.421875 74.21875 
Q 39.75 74.21875 46.484375 68.546875 
Q 53.21875 62.890625 53.21875 53.421875 
Q 53.21875 48.921875 51.53125 44.890625 
Q 49.859375 40.875 45.40625 35.40625 
Q 44.1875 33.984375 37.640625 27.21875 
Q 31.109375 20.453125 19.1875 8.296875 
z
" id="DejaVuSans-50"/>
      </defs>
      <g transform="translate(130.812074 322.182437)scale(0.1 -0.1)">
       <use xlink:href="#DejaVuSans-48"/>
       <use x="63.623047" xlink:href="#DejaVuSans-46"/>
       <use x="95.410156" xlink:href="#DejaVuSans-50"/>
      </g>
     </g>
    </g>
    <g id="xtick_3">
     <g id="line2d_3">
      <g>
       <use style="stroke:#000000;stroke-width:0.8;" x="203.694545" xlink:href="#m285d43dada" y="307.584"/>
      </g>
     </g>
     <g id="text_3">
      <!-- 0.4 -->
      <defs>
       <path d="M 37.796875 64.3125 
L 12.890625 25.390625 
L 37.796875 25.390625 
z
M 35.203125 72.90625 
L 47.609375 72.90625 
L 47.609375 25.390625 
L 58.015625 25.390625 
L 58.015625 17.1875 
L 47.609375 17.1875 
L 47.609375 0 
L 37.796875 0 
L 37.796875 17.1875 
L 4.890625 17.1875 
L 4.890625 26.703125 
z
" id="DejaVuSans-52"/>
      </defs>
      <g transform="translate(195.742983 322.182437)scale(0.1 -0.1)">
       <use xlink:href="#DejaVuSans-48"/>
       <use x="63.623047" xlink:href="#DejaVuSans-46"/>
       <use x="95.410156" xlink:href="#DejaVuSans-52"/>
      </g>
     </g>
    </g>
    <g id="xtick_4">
     <g id="line2d_4">
      <g>
       <use style="stroke:#000000;stroke-width:0.8;" x="268.625455" xlink:href="#m285d43dada" y="307.584"/>
      </g>
     </g>
     <g id="text_4">
      <!-- 0.6 -->
      <defs>
       <path d="M 33.015625 40.375 
Q 26.375 40.375 22.484375 35.828125 
Q 18.609375 31.296875 18.609375 23.390625 
Q 18.609375 15.53125 22.484375 10.953125 
Q 26.375 6.390625 33.015625 6.390625 
Q 39.65625 6.390625 43.53125 10.953125 
Q 47.40625 15.53125 47.40625 23.390625 
Q 47.40625 31.296875 43.53125 35.828125 
Q 39.65625 40.375 33.015625 40.375 
z
M 52.59375 71.296875 
L 52.59375 62.3125 
Q 48.875 64.0625 45.09375 64.984375 
Q 41.3125 65.921875 37.59375 65.921875 
Q 27.828125 65.921875 22.671875 59.328125 
Q 17.53125 52.734375 16.796875 39.40625 
Q 19.671875 43.65625 24.015625 45.921875 
Q 28.375 48.1875 33.59375 48.1875 
Q 44.578125 48.1875 50.953125 41.515625 
Q 57.328125 34.859375 57.328125 23.390625 
Q 57.328125 12.15625 50.6875 5.359375 
Q 44.046875 -1.421875 33.015625 -1.421875 
Q 20.359375 -1.421875 13.671875 8.265625 
Q 6.984375 17.96875 6.984375 36.375 
Q 6.984375 53.65625 15.1875 63.9375 
Q 23.390625 74.21875 37.203125 74.21875 
Q 40.921875 74.21875 44.703125 73.484375 
Q 48.484375 72.75 52.59375 71.296875 
z
" id="DejaVuSans-54"/>
      </defs>
      <g transform="translate(260.673892 322.182437)scale(0.1 -0.1)">
       <use xlink:href="#DejaVuSans-48"/>
       <use x="63.623047" xlink:href="#DejaVuSans-46"/>
       <use x="95.410156" xlink:href="#DejaVuSans-54"/>
      </g>
     </g>
    </g>
    <g id="xtick_5">
     <g id="line2d_5">
      <g>
       <use style="stroke:#000000;stroke-width:0.8;" x="333.556364" xlink:href="#m285d43dada" y="307.584"/>
      </g>
     </g>
     <g id="text_5">
      <!-- 0.8 -->
      <defs>
       <path d="M 31.78125 34.625 
Q 24.75 34.625 20.71875 30.859375 
Q 16.703125 27.09375 16.703125 20.515625 
Q 16.703125 13.921875 20.71875 10.15625 
Q 24.75 6.390625 31.78125 6.390625 
Q 38.8125 6.390625 42.859375 10.171875 
Q 46.921875 13.96875 46.921875 20.515625 
Q 46.921875 27.09375 42.890625 30.859375 
Q 38.875 34.625 31.78125 34.625 
z
M 21.921875 38.8125 
Q 15.578125 40.375 12.03125 44.71875 
Q 8.5 49.078125 8.5 55.328125 
Q 8.5 64.0625 14.71875 69.140625 
Q 20.953125 74.21875 31.78125 74.21875 
Q 42.671875 74.21875 48.875 69.140625 
Q 55.078125 64.0625 55.078125 55.328125 
Q 55.078125 49.078125 51.53125 44.71875 
Q 48 40.375 41.703125 38.8125 
Q 48.828125 37.15625 52.796875 32.3125 
Q 56.78125 27.484375 56.78125 20.515625 
Q 56.78125 9.90625 50.3125 4.234375 
Q 43.84375 -1.421875 31.78125 -1.421875 
Q 19.734375 -1.421875 13.25 4.234375 
Q 6.78125 9.90625 6.78125 20.515625 
Q 6.78125 27.484375 10.78125 32.3125 
Q 14.796875 37.15625 21.921875 38.8125 
z
M 18.3125 54.390625 
Q 18.3125 48.734375 21.84375 45.5625 
Q 25.390625 42.390625 31.78125 42.390625 
Q 38.140625 42.390625 41.71875 45.5625 
Q 45.3125 48.734375 45.3125 54.390625 
Q 45.3125 60.0625 41.71875 63.234375 
Q 38.140625 66.40625 31.78125 66.40625 
Q 25.390625 66.40625 21.84375 63.234375 
Q 18.3125 60.0625 18.3125 54.390625 
z
" id="DejaVuSans-56"/>
      </defs>
      <g transform="translate(325.604801 322.182437)scale(0.1 -0.1)">
       <use xlink:href="#DejaVuSans-48"/>
       <use x="63.623047" xlink:href="#DejaVuSans-46"/>
       <use x="95.410156" xlink:href="#DejaVuSans-56"/>
      </g>
     </g>
    </g>
    <g id="xtick_6">
     <g id="line2d_6">
      <g>
       <use style="stroke:#000000;stroke-width:0.8;" x="398.487273" xlink:href="#m285d43dada" y="307.584"/>
      </g>
     </g>
     <g id="text_6">
      <!-- 1.0 -->
      <defs>
       <path d="M 12.40625 8.296875 
L 28.515625 8.296875 
L 28.515625 63.921875 
L 10.984375 60.40625 
L 10.984375 69.390625 
L 28.421875 72.90625 
L 38.28125 72.90625 
L 38.28125 8.296875 
L 54.390625 8.296875 
L 54.390625 0 
L 12.40625 0 
z
" id="DejaVuSans-49"/>
      </defs>
      <g transform="translate(390.53571 322.182437)scale(0.1 -0.1)">
       <use xlink:href="#DejaVuSans-49"/>
       <use x="63.623047" xlink:href="#DejaVuSans-46"/>
       <use x="95.410156" xlink:href="#DejaVuSans-48"/>
      </g>
     </g>
    </g>
   </g>
   <g id="matplotlib.axis_2">
    <g id="ytick_1">
     <g id="line2d_7">
      <defs>
       <path d="M 0 0 
L -3.5 0 
" id="m782f7fe85c" style="stroke:#000000;stroke-width:0.8;"/>
      </defs>
      <g>
       <use style="stroke:#000000;stroke-width:0.8;" x="57.6" xlink:href="#m782f7fe85c" y="295.488"/>
      </g>
     </g>
     <g id="text_7">
      <!-- 0.0 -->
      <g transform="translate(34.696875 299.287219)scale(0.1 -0.1)">
       <use xlink:href="#DejaVuSans-48"/>
       <use x="63.623047" xlink:href="#DejaVuSans-46"/>
       <use x="95.410156" xlink:href="#DejaVuSans-48"/>
      </g>
     </g>
    </g>
    <g id="ytick_2">
     <g id="line2d_8">
      <g>
       <use style="stroke:#000000;stroke-width:0.8;" x="57.6" xlink:href="#m782f7fe85c" y="247.104"/>
      </g>
     </g>
     <g id="text_8">
      <!-- 0.2 -->
      <g transform="translate(34.696875 250.903219)scale(0.1 -0.1)">
       <use xlink:href="#DejaVuSans-48"/>
       <use x="63.623047" xlink:href="#DejaVuSans-46"/>
       <use x="95.410156" xlink:href="#DejaVuSans-50"/>
      </g>
     </g>
    </g>
    <g id="ytick_3">
     <g id="line2d_9">
      <g>
       <use style="stroke:#000000;stroke-width:0.8;" x="57.6" xlink:href="#m782f7fe85c" y="198.72"/>
      </g>
     </g>
     <g id="text_9">
      <!-- 0.4 -->
      <g transform="translate(34.696875 202.519219)scale(0.1 -0.1)">
       <use xlink:href="#DejaVuSans-48"/>
       <use x="63.623047" xlink:href="#DejaVuSans-46"/>
       <use x="95.410156" xlink:href="#DejaVuSans-52"/>
      </g>
     </g>
    </g>
    <g id="ytick_4">
     <g id="line2d_10">
      <g>
       <use style="stroke:#000000;stroke-width:0.8;" x="57.6" xlink:href="#m782f7fe85c" y="150.336"/>
      </g>
     </g>
     <g id="text_10">
      <!-- 0.6 -->
      <g transform="translate(34.696875 154.135219)scale(0.1 -0.1)">
       <use xlink:href="#DejaVuSans-48"/>
       <use x="63.623047" xlink:href="#DejaVuSans-46"/>
       <use x="95.410156" xlink:href="#DejaVuSans-54"/>
      </g>
     </g>
    </g>
    <g id="ytick_5">
     <g id="line2d_11">
      <g>
       <use style="stroke:#000000;stroke-width:0.8;" x="57.6" xlink:href="#m782f7fe85c" y="101.952"/>
      </g>
     </g>
     <g id="text_11">
      <!-- 0.8 -->
      <g transform="translate(34.696875 105.751219)scale(0.1 -0.1)">
       <use xlink:href="#DejaVuSans-48"/>
       <use x="63.623047" xlink:href="#DejaVuSans-46"/>
       <use x="95.410156" xlink:href="#DejaVuSans-56"/>
      </g>
     </g>
    </g>
    <g id="ytick_6">
     <g id="line2d_12">
      <g>
       <use style="stroke:#000000;stroke-width:0.8;" x="57.6" xlink:href="#m782f7fe85c" y="53.568"/>
      </g>
     </g>
     <g id="text_12">
      <!-- 1.0 -->
      <g transform="translate(34.696875 57.367219)scale(0.1 -0.1)">
       <use xlink:href="#DejaVuSans-49"/>
       <use x="63.623047" xlink:href="#DejaVuSans-46"/>
       <use x="95.410156" xlink:href="#DejaVuSans-48"/>
      </g>
     </g>
    </g>
   </g>
   <g id="line2d_13">
    <defs>
     <path d="M -3 3 
L 3 -3 
M -3 -3 
L 3 3 
" id="m88a25f5ee8" style="stroke:#000000;"/>
    </defs>
    <g clip-path="url(#p62619ac58c)">
     <use style="stroke:#000000;" x="398.487273" xlink:href="#m88a25f5ee8" y="247.103999"/>
    </g>
   </g>
   <g id="line2d_14">
    <path clip-path="url(#p62619ac58c)" d="M 73.832727 295.488 
L 90.065455 295.488 
L 106.298182 287.981829 
L 122.530909 281.394981 
L 138.763636 275.835519 
L 154.996364 271.230789 
L 171.229091 267.452849 
L 187.461818 264.366839 
L 203.694545 261.850176 
L 219.927273 259.798396 
L 236.16 258.125093 
L 252.392727 256.759737 
L 268.625455 255.645048 
L 284.858182 254.734554 
L 301.090909 253.990534 
L 317.323636 253.382331 
L 333.556364 252.885012 
L 349.789091 252.478261 
L 366.021818 252.145523 
L 382.254545 251.873285 
L 398.487273 251.650521 
" style="fill:none;stroke:#1f77b4;stroke-linecap:square;stroke-width:1.5;"/>
   </g>
   <g id="line2d_15">
    <path clip-path="url(#p62619ac58c)" d="M 73.832727 254.003284 
L 90.065455 266.907547 
L 106.298182 271.862351 
L 122.530909 275.849971 
L 138.763636 279.080856 
L 154.996364 281.702696 
L 171.229091 283.832302 
L 187.461818 285.563719 
L 203.694545 286.972719 
L 219.927273 288.120285 
L 236.16 289.055653 
L 252.392727 289.818591 
L 268.625455 290.441242 
L 284.858182 290.949647 
L 301.090909 291.364973 
L 317.323636 291.704395 
L 333.556364 291.981849 
L 349.789091 292.208733 
L 366.021818 292.394284 
L 382.254545 292.546086 
" style="fill:none;stroke:#ff7f0e;stroke-linecap:square;stroke-width:1.5;"/>
   </g>
   <g id="line2d_16">
    <g clip-path="url(#p62619ac58c)">
     <use style="stroke:#000000;" x="398.487273" xlink:href="#m88a25f5ee8" y="198.719999"/>
    </g>
   </g>
   <g id="line2d_17">
    <path clip-path="url(#p62619ac58c)" d="M 73.832727 295.488 
L 90.065455 295.488 
L 106.298182 282.829947 
L 122.530909 270.447028 
L 138.763636 259.37485 
L 154.996364 249.825878 
L 171.229091 241.77464 
L 187.461818 235.090909 
L 203.694545 229.599982 
L 219.927273 225.117922 
L 236.16 221.471995 
L 252.392727 218.510464 
L 268.625455 216.105325 
L 284.858182 214.151137 
L 301.090909 212.562138 
L 317.323636 211.268999 
L 333.556364 210.215795 
L 349.789091 209.357398 
L 366.021818 208.657351 
L 382.254545 208.086142 
L 398.487273 207.619871 
" style="fill:none;stroke:#2ca02c;stroke-linecap:square;stroke-width:1.5;"/>
   </g>
   <g id="line2d_18">
    <path clip-path="url(#p62619ac58c)" d="M 73.832727 204.800999 
L 90.065455 230.854844 
L 106.298182 241.965237 
L 122.530909 250.651466 
L 138.763636 257.763151 
L 154.996364 263.594315 
L 171.229091 268.354235 
L 187.461818 272.223359 
L 203.694545 275.360297 
L 219.927273 277.901149 
L 236.16 279.959465 
L 252.392727 281.628114 
L 268.625455 282.982226 
L 284.858182 284.082265 
L 301.090909 284.976793 
L 317.323636 285.704879 
L 333.556364 286.297949 
L 349.789091 286.78135 
L 366.021818 287.175595 
L 382.254545 287.497288 
" style="fill:none;stroke:#d62728;stroke-linecap:square;stroke-width:1.5;"/>
   </g>
   <g id="line2d_19">
    <g clip-path="url(#p62619ac58c)">
     <use style="stroke:#000000;" x="398.487273" xlink:href="#m88a25f5ee8" y="150.335994"/>
    </g>
   </g>
   <g id="line2d_20">
    <path clip-path="url(#p62619ac58c)" d="M 73.832727 295.488 
L 90.065455 295.488 
L 106.298182 281.491675 
L 122.530909 263.479982 
L 138.763636 246.901898 
L 154.996364 232.232481 
L 171.229091 219.572861 
L 187.461818 208.860147 
L 203.694545 199.938523 
L 219.927273 192.600296 
L 236.16 186.617543 
L 252.392727 181.766624 
L 268.625455 177.844289 
L 284.858182 174.675332 
L 301.090909 172.11395 
L 317.323636 170.041399 
L 333.556364 168.362083 
L 349.789091 166.999463 
L 366.021818 165.892359 
L 382.254545 164.9918 
L 398.487273 164.258508 
" style="fill:none;stroke:#9467bd;stroke-linecap:square;stroke-width:1.5;"/>
   </g>
   <g id="line2d_21">
    <path clip-path="url(#p62619ac58c)" d="M 73.832727 156.690779 
L 90.065455 185.992909 
L 106.298182 208.906499 
L 122.530909 222.615113 
L 138.763636 233.969871 
L 154.996364 243.432943 
L 171.229091 251.266799 
L 187.461818 257.69371 
L 203.694545 262.923896 
L 219.927273 267.155913 
L 236.16 270.569811 
L 252.392727 273.321361 
L 268.625455 275.540311 
L 284.858182 277.332128 
L 301.090909 278.781387 
L 317.323636 279.955489 
L 333.556364 280.908135 
L 349.789091 281.682155 
L 366.021818 282.311756 
L 382.254545 282.824407 
" style="fill:none;stroke:#8c564b;stroke-linecap:square;stroke-width:1.5;"/>
   </g>
   <g id="line2d_22">
    <g clip-path="url(#p62619ac58c)">
     <use style="stroke:#000000;" x="398.487273" xlink:href="#m88a25f5ee8" y="101.951997"/>
    </g>
   </g>
   <g id="line2d_23">
    <path clip-path="url(#p62619ac58c)" d="M 73.832727 295.488 
L 90.065455 295.488 
L 106.298182 281.243635 
L 122.530909 257.034134 
L 138.763636 234.802161 
L 154.996364 214.979691 
L 171.229091 197.688157 
L 187.461818 182.896721 
L 203.694545 170.472731 
L 219.927273 160.207983 
L 236.16 151.843011 
L 252.392727 145.094716 
L 268.625455 139.684052 
L 284.858182 135.35732 
L 301.090909 131.897478 
L 317.323636 129.1264 
L 333.556364 126.901577 
L 349.789091 125.11051 
L 366.021818 123.664849 
L 382.254545 122.495206 
L 398.487273 121.546919 
" style="fill:none;stroke:#e377c2;stroke-linecap:square;stroke-width:1.5;"/>
   </g>
   <g id="line2d_24">
    <path clip-path="url(#p62619ac58c)" d="M 73.832727 115.231413 
L 90.065455 140.494907 
L 106.298182 177.871325 
L 122.530909 195.761899 
L 138.763636 211.039461 
L 154.996364 224.000515 
L 171.229091 234.863285 
L 187.461818 243.847137 
L 203.694545 251.180624 
L 219.927273 257.100893 
L 236.16 261.844343 
L 252.392727 265.631618 
L 268.625455 268.654905 
L 284.858182 271.072826 
L 301.090909 273.012044 
L 317.323636 274.571966 
L 333.556364 275.830339 
L 349.789091 276.847977 
L 366.021818 277.672718 
L 382.254545 278.342283 
" style="fill:none;stroke:#7f7f7f;stroke-linecap:square;stroke-width:1.5;"/>
   </g>
   <g id="line2d_25">
    <g clip-path="url(#p62619ac58c)">
     <use style="stroke:#000000;" x="398.487273" xlink:href="#m88a25f5ee8" y="53.568"/>
    </g>
   </g>
   <g id="line2d_26">
    <path clip-path="url(#p62619ac58c)" d="M 73.832727 295.488 
L 90.065455 295.488 
L 106.298182 281.190794 
L 122.530909 253.895307 
L 138.763636 227.523479 
L 154.996364 203.316232 
L 171.229091 181.662241 
L 187.461818 162.687512 
L 203.694545 146.3781 
L 219.927273 132.620936 
L 236.16 121.223301 
L 252.392727 111.930459 
L 268.625455 104.449507 
L 284.858182 98.478384 
L 301.090909 93.732951 
L 317.323636 89.964847 
L 333.556364 86.968276 
L 349.789091 84.578523 
L 366.021818 82.666274 
L 382.254545 81.130909 
L 398.487273 79.894259 
" style="fill:none;stroke:#bcbd22;stroke-linecap:square;stroke-width:1.5;"/>
   </g>
   <g id="line2d_27">
    <path clip-path="url(#p62619ac58c)" d="M 73.832727 83.161571 
L 90.065455 101.320868 
L 106.298182 140.996434 
L 122.530909 163.407812 
L 138.763636 182.713398 
L 154.996364 199.503305 
L 171.229091 213.893084 
L 187.461818 226.029966 
L 203.694545 236.104723 
L 219.927273 244.337135 
L 236.16 250.969403 
L 252.392727 256.256567 
L 268.625455 260.448058 
L 284.858182 263.767905 
L 301.090909 266.403172 
L 317.323636 268.502829 
L 333.556364 270.182495 
L 349.789091 271.531311 
L 366.021818 272.618058 
L 382.254545 273.496173 
" style="fill:none;stroke:#17becf;stroke-linecap:square;stroke-width:1.5;"/>
   </g>
   <g id="patch_3">
    <path d="M 57.6 307.584 
L 57.6 41.472 
" style="fill:none;stroke:#000000;stroke-linecap:square;stroke-linejoin:miter;stroke-width:0.8;"/>
   </g>
   <g id="patch_4">
    <path d="M 414.72 307.584 
L 414.72 41.472 
" style="fill:none;stroke:#000000;stroke-linecap:square;stroke-linejoin:miter;stroke-width:0.8;"/>
   </g>
   <g id="patch_5">
    <path d="M 57.6 307.584 
L 414.72 307.584 
" style="fill:none;stroke:#000000;stroke-linecap:square;stroke-linejoin:miter;stroke-width:0.8;"/>
   </g>
   <g id="patch_6">
    <path d="M 57.6 41.472 
L 414.72 41.472 
" style="fill:none;stroke:#000000;stroke-linecap:square;stroke-linejoin:miter;stroke-width:0.8;"/>
   </g>
  </g>
 </g>
 <defs>
  <clipPath id="p62619ac58c">
   <rect height="266.112" width="357.12" x="57.6" y="41.472"/>
  </clipPath>
 </defs>
</svg>
