<?xml version="1.0" encoding="utf-8" standalone="no"?>
<!DOCTYPE svg PUBLIC "-//W3C//DTD SVG 1.1//EN"
  "http://www.w3.org/Graphics/SVG/1.1/DTD/svg11.dtd">
<!-- Created with matplotlib (https://matplotlib.org/) -->
<svg height="345.6pt" version="1.1" viewBox="0 0 460.8 345.6" width="460.8pt" xmlns="http://www.w3.org/2000/svg" xmlns:xlink="http://www.w3.org/1999/xlink">
 <defs>
  <style type="text/css">
*{stroke-linecap:butt;stroke-linejoin:round;}
  </style>
 </defs>
 <g id="figure_1">
  <g id="patch_1">
   <path d="M 0 345.6 
L 460.8 345.6 
L 460.8 0 
L 0 0 
z
" style="fill:#ffffff;"/>
  </g>
  <g id="axes_1">
   <g id="patch_2">
    <path d="M 57.6 307.584 
L 414.72 307.584 
L 414.72 41.472 
L 57.6 41.472 
z
" style="fill:#ffffff;"/>
   </g>
   <g id="matplotlib.axis_1">
    <g id="xtick_1">
     <g id="line2d_1">
      <defs>
       <path d="M 0 0 
L 0 3.5 
" id="m759d32c723" style="stroke:#000000;stroke-width:0.8;"/>
      </defs>
      <g>
       <use style="stroke:#000000;stroke-width:0.8;" x="73.832727" xlink:href="#m759d32c723" y="307.584"/>
      </g>
     </g>
     <g id="text_1">
      <!-- 0.0 -->
      <defs>
       <path d="M 31.78125 66.40625 
Q 24.171875 66.40625 20.328125 58.90625 
Q 16.5 51.421875 16.5 36.375 
Q 16.5 21.390625 20.328125 13.890625 
Q 24.171875 6.390625 31.78125 6.390625 
Q 39.453125 6.390625 43.28125 13.890625 
Q 47.125 21.390625 47.125 36.375 
Q 47.125 51.421875 43.28125 58.90625 
Q 39.453125 66.40625 31.78125 66.40625 
z
M 31.78125 74.21875 
Q 44.046875 74.21875 50.515625 64.515625 
Q 56.984375 54.828125 56.984375 36.375 
Q 56.984375 17.96875 50.515625 8.265625 
Q 44.046875 -1.421875 31.78125 -1.421875 
Q 19.53125 -1.421875 13.0625 8.265625 
Q 6.59375 17.96875 6.59375 36.375 
Q 6.59375 54.828125 13.0625 64.515625 
Q 19.53125 74.21875 31.78125 74.21875 
z
" id="DejaVuSans-48"/>
       <path d="M 10.6875 12.40625 
L 21 12.40625 
L 21 0 
L 10.6875 0 
z
" id="DejaVuSans-46"/>
      </defs>
      <g transform="translate(65.881165 322.182437)scale(0.1 -0.1)">
       <use xlink:href="#DejaVuSans-48"/>
       <use x="63.623047" xlink:href="#DejaVuSans-46"/>
       <use x="95.410156" xlink:href="#DejaVuSans-48"/>
      </g>
     </g>
    </g>
    <g id="xtick_2">
     <g id="line2d_2">
      <g>
       <use style="stroke:#000000;stroke-width:0.8;" x="138.763636" xlink:href="#m759d32c723" y="307.584"/>
      </g>
     </g>
     <g id="text_2">
      <!-- 0.2 -->
      <defs>
       <path d="M 19.1875 8.296875 
L 53.609375 8.296875 
L 53.609375 0 
L 7.328125 0 
L 7.328125 8.296875 
Q 12.9375 14.109375 22.625 23.890625 
Q 32.328125 33.6875 34.8125 36.53125 
Q 39.546875 41.84375 41.421875 45.53125 
Q 43.3125 49.21875 43.3125 52.78125 
Q 43.3125 58.59375 39.234375 62.25 
Q 35.15625 65.921875 28.609375 65.921875 
Q 23.96875 65.921875 18.8125 64.3125 
Q 13.671875 62.703125 7.8125 59.421875 
L 7.8125 69.390625 
Q 13.765625 71.78125 18.9375 73 
Q 24.125 74.21875 28.421875 74.21875 
Q 39.75 74.21875 46.484375 68.546875 
Q 53.21875 62.890625 53.21875 53.421875 
Q 53.21875 48.921875 51.53125 44.890625 
Q 49.859375 40.875 45.40625 35.40625 
Q 44.1875 33.984375 37.640625 27.21875 
Q 31.109375 20.453125 19.1875 8.296875 
z
" id="DejaVuSans-50"/>
      </defs>
      <g transform="translate(130.812074 322.182437)scale(0.1 -0.1)">
       <use xlink:href="#DejaVuSans-48"/>
       <use x="63.623047" xlink:href="#DejaVuSans-46"/>
       <use x="95.410156" xlink:href="#DejaVuSans-50"/>
      </g>
     </g>
    </g>
    <g id="xtick_3">
     <g id="line2d_3">
      <g>
       <use style="stroke:#000000;stroke-width:0.8;" x="203.694545" xlink:href="#m759d32c723" y="307.584"/>
      </g>
     </g>
     <g id="text_3">
      <!-- 0.4 -->
      <defs>
       <path d="M 37.796875 64.3125 
L 12.890625 25.390625 
L 37.796875 25.390625 
z
M 35.203125 72.90625 
L 47.609375 72.90625 
L 47.609375 25.390625 
L 58.015625 25.390625 
L 58.015625 17.1875 
L 47.609375 17.1875 
L 47.609375 0 
L 37.796875 0 
L 37.796875 17.1875 
L 4.890625 17.1875 
L 4.890625 26.703125 
z
" id="DejaVuSans-52"/>
      </defs>
      <g transform="translate(195.742983 322.182437)scale(0.1 -0.1)">
       <use xlink:href="#DejaVuSans-48"/>
       <use x="63.623047" xlink:href="#DejaVuSans-46"/>
       <use x="95.410156" xlink:href="#DejaVuSans-52"/>
      </g>
     </g>
    </g>
    <g id="xtick_4">
     <g id="line2d_4">
      <g>
       <use style="stroke:#000000;stroke-width:0.8;" x="268.625455" xlink:href="#m759d32c723" y="307.584"/>
      </g>
     </g>
     <g id="text_4">
      <!-- 0.6 -->
      <defs>
       <path d="M 33.015625 40.375 
Q 26.375 40.375 22.484375 35.828125 
Q 18.609375 31.296875 18.609375 23.390625 
Q 18.609375 15.53125 22.484375 10.953125 
Q 26.375 6.390625 33.015625 6.390625 
Q 39.65625 6.390625 43.53125 10.953125 
Q 47.40625 15.53125 47.40625 23.390625 
Q 47.40625 31.296875 43.53125 35.828125 
Q 39.65625 40.375 33.015625 40.375 
z
M 52.59375 71.296875 
L 52.59375 62.3125 
Q 48.875 64.0625 45.09375 64.984375 
Q 41.3125 65.921875 37.59375 65.921875 
Q 27.828125 65.921875 22.671875 59.328125 
Q 17.53125 52.734375 16.796875 39.40625 
Q 19.671875 43.65625 24.015625 45.921875 
Q 28.375 48.1875 33.59375 48.1875 
Q 44.578125 48.1875 50.953125 41.515625 
Q 57.328125 34.859375 57.328125 23.390625 
Q 57.328125 12.15625 50.6875 5.359375 
Q 44.046875 -1.421875 33.015625 -1.421875 
Q 20.359375 -1.421875 13.671875 8.265625 
Q 6.984375 17.96875 6.984375 36.375 
Q 6.984375 53.65625 15.1875 63.9375 
Q 23.390625 74.21875 37.203125 74.21875 
Q 40.921875 74.21875 44.703125 73.484375 
Q 48.484375 72.75 52.59375 71.296875 
z
" id="DejaVuSans-54"/>
      </defs>
      <g transform="translate(260.673892 322.182437)scale(0.1 -0.1)">
       <use xlink:href="#DejaVuSans-48"/>
       <use x="63.623047" xlink:href="#DejaVuSans-46"/>
       <use x="95.410156" xlink:href="#DejaVuSans-54"/>
      </g>
     </g>
    </g>
    <g id="xtick_5">
     <g id="line2d_5">
      <g>
       <use style="stroke:#000000;stroke-width:0.8;" x="333.556364" xlink:href="#m759d32c723" y="307.584"/>
      </g>
     </g>
     <g id="text_5">
      <!-- 0.8 -->
      <defs>
       <path d="M 31.78125 34.625 
Q 24.75 34.625 20.71875 30.859375 
Q 16.703125 27.09375 16.703125 20.515625 
Q 16.703125 13.921875 20.71875 10.15625 
Q 24.75 6.390625 31.78125 6.390625 
Q 38.8125 6.390625 42.859375 10.171875 
Q 46.921875 13.96875 46.921875 20.515625 
Q 46.921875 27.09375 42.890625 30.859375 
Q 38.875 34.625 31.78125 34.625 
z
M 21.921875 38.8125 
Q 15.578125 40.375 12.03125 44.71875 
Q 8.5 49.078125 8.5 55.328125 
Q 8.5 64.0625 14.71875 69.140625 
Q 20.953125 74.21875 31.78125 74.21875 
Q 42.671875 74.21875 48.875 69.140625 
Q 55.078125 64.0625 55.078125 55.328125 
Q 55.078125 49.078125 51.53125 44.71875 
Q 48 40.375 41.703125 38.8125 
Q 48.828125 37.15625 52.796875 32.3125 
Q 56.78125 27.484375 56.78125 20.515625 
Q 56.78125 9.90625 50.3125 4.234375 
Q 43.84375 -1.421875 31.78125 -1.421875 
Q 19.734375 -1.421875 13.25 4.234375 
Q 6.78125 9.90625 6.78125 20.515625 
Q 6.78125 27.484375 10.78125 32.3125 
Q 14.796875 37.15625 21.921875 38.8125 
z
M 18.3125 54.390625 
Q 18.3125 48.734375 21.84375 45.5625 
Q 25.390625 42.390625 31.78125 42.390625 
Q 38.140625 42.390625 41.71875 45.5625 
Q 45.3125 48.734375 45.3125 54.390625 
Q 45.3125 60.0625 41.71875 63.234375 
Q 38.140625 66.40625 31.78125 66.40625 
Q 25.390625 66.40625 21.84375 63.234375 
Q 18.3125 60.0625 18.3125 54.390625 
z
" id="DejaVuSans-56"/>
      </defs>
      <g transform="translate(325.604801 322.182437)scale(0.1 -0.1)">
       <use xlink:href="#DejaVuSans-48"/>
       <use x="63.623047" xlink:href="#DejaVuSans-46"/>
       <use x="95.410156" xlink:href="#DejaVuSans-56"/>
      </g>
     </g>
    </g>
    <g id="xtick_6">
     <g id="line2d_6">
      <g>
       <use style="stroke:#000000;stroke-width:0.8;" x="398.487273" xlink:href="#m759d32c723" y="307.584"/>
      </g>
     </g>
     <g id="text_6">
      <!-- 1.0 -->
      <defs>
       <path d="M 12.40625 8.296875 
L 28.515625 8.296875 
L 28.515625 63.921875 
L 10.984375 60.40625 
L 10.984375 69.390625 
L 28.421875 72.90625 
L 38.28125 72.90625 
L 38.28125 8.296875 
L 54.390625 8.296875 
L 54.390625 0 
L 12.40625 0 
z
" id="DejaVuSans-49"/>
      </defs>
      <g transform="translate(390.53571 322.182437)scale(0.1 -0.1)">
       <use xlink:href="#DejaVuSans-49"/>
       <use x="63.623047" xlink:href="#DejaVuSans-46"/>
       <use x="95.410156" xlink:href="#DejaVuSans-48"/>
      </g>
     </g>
    </g>
   </g>
   <g id="matplotlib.axis_2">
    <g id="ytick_1">
     <g id="line2d_7">
      <defs>
       <path d="M 0 0 
L -3.5 0 
" id="m7248ccf205" style="stroke:#000000;stroke-width:0.8;"/>
      </defs>
      <g>
       <use style="stroke:#000000;stroke-width:0.8;" x="57.6" xlink:href="#m7248ccf205" y="291.949208"/>
      </g>
     </g>
     <g id="text_7">
      <!-- 0.0 -->
      <g transform="translate(34.696875 295.748427)scale(0.1 -0.1)">
       <use xlink:href="#DejaVuSans-48"/>
       <use x="63.623047" xlink:href="#DejaVuSans-46"/>
       <use x="95.410156" xlink:href="#DejaVuSans-48"/>
      </g>
     </g>
    </g>
    <g id="ytick_2">
     <g id="line2d_8">
      <g>
       <use style="stroke:#000000;stroke-width:0.8;" x="57.6" xlink:href="#m7248ccf205" y="244.272967"/>
      </g>
     </g>
     <g id="text_8">
      <!-- 0.2 -->
      <g transform="translate(34.696875 248.072185)scale(0.1 -0.1)">
       <use xlink:href="#DejaVuSans-48"/>
       <use x="63.623047" xlink:href="#DejaVuSans-46"/>
       <use x="95.410156" xlink:href="#DejaVuSans-50"/>
      </g>
     </g>
    </g>
    <g id="ytick_3">
     <g id="line2d_9">
      <g>
       <use style="stroke:#000000;stroke-width:0.8;" x="57.6" xlink:href="#m7248ccf205" y="196.596725"/>
      </g>
     </g>
     <g id="text_9">
      <!-- 0.4 -->
      <g transform="translate(34.696875 200.395944)scale(0.1 -0.1)">
       <use xlink:href="#DejaVuSans-48"/>
       <use x="63.623047" xlink:href="#DejaVuSans-46"/>
       <use x="95.410156" xlink:href="#DejaVuSans-52"/>
      </g>
     </g>
    </g>
    <g id="ytick_4">
     <g id="line2d_10">
      <g>
       <use style="stroke:#000000;stroke-width:0.8;" x="57.6" xlink:href="#m7248ccf205" y="148.920483"/>
      </g>
     </g>
     <g id="text_10">
      <!-- 0.6 -->
      <g transform="translate(34.696875 152.719702)scale(0.1 -0.1)">
       <use xlink:href="#DejaVuSans-48"/>
       <use x="63.623047" xlink:href="#DejaVuSans-46"/>
       <use x="95.410156" xlink:href="#DejaVuSans-54"/>
      </g>
     </g>
    </g>
    <g id="ytick_5">
     <g id="line2d_11">
      <g>
       <use style="stroke:#000000;stroke-width:0.8;" x="57.6" xlink:href="#m7248ccf205" y="101.244242"/>
      </g>
     </g>
     <g id="text_11">
      <!-- 0.8 -->
      <g transform="translate(34.696875 105.04346)scale(0.1 -0.1)">
       <use xlink:href="#DejaVuSans-48"/>
       <use x="63.623047" xlink:href="#DejaVuSans-46"/>
       <use x="95.410156" xlink:href="#DejaVuSans-56"/>
      </g>
     </g>
    </g>
    <g id="ytick_6">
     <g id="line2d_12">
      <g>
       <use style="stroke:#000000;stroke-width:0.8;" x="57.6" xlink:href="#m7248ccf205" y="53.568"/>
      </g>
     </g>
     <g id="text_12">
      <!-- 1.0 -->
      <g transform="translate(34.696875 57.367219)scale(0.1 -0.1)">
       <use xlink:href="#DejaVuSans-49"/>
       <use x="63.623047" xlink:href="#DejaVuSans-46"/>
       <use x="95.410156" xlink:href="#DejaVuSans-48"/>
      </g>
     </g>
    </g>
   </g>
   <g id="line2d_13">
    <defs>
     <path d="M -3 3 
L 3 -3 
M -3 -3 
L 3 3 
" id="md553f07251" style="stroke:#000000;"/>
    </defs>
    <g clip-path="url(#p78fd4c1a26)">
     <use style="stroke:#000000;" x="398.487273" xlink:href="#md553f07251" y="244.272966"/>
    </g>
   </g>
   <g id="line2d_14">
    <path clip-path="url(#p78fd4c1a26)" d="M 73.832727 291.949208 
L 90.065455 291.949208 
L 106.298182 284.390445 
L 122.530909 277.78248 
L 138.763636 272.206552 
L 154.996364 267.612055 
L 171.229091 263.882163 
L 187.461818 260.874344 
L 203.694545 258.448547 
L 219.927273 256.483373 
L 236.16 254.881354 
L 252.392727 253.567234 
L 268.625455 252.483567 
L 284.858182 251.586232 
L 301.090909 250.840858 
L 317.323636 250.220264 
L 333.556364 249.702654 
L 349.789091 249.27036 
L 366.021818 248.908946 
L 382.254545 248.606547 
L 398.487273 248.35336 
" style="fill:none;stroke:#1f77b4;stroke-linecap:square;stroke-width:1.5;"/>
   </g>
   <g id="line2d_15">
    <path clip-path="url(#p78fd4c1a26)" d="M 73.832727 270.024003 
L 90.065455 287.607113 
L 106.298182 289.762602 
L 122.530909 291.163347 
L 138.763636 292.082247 
L 154.996364 292.708252 
L 171.229091 293.169394 
L 187.461818 293.541137 
L 203.694545 293.859944 
L 219.927273 294.139884 
L 236.16 294.385595 
L 252.392727 294.599304 
L 268.625455 294.783353 
L 284.858182 294.940595 
L 301.090909 295.074199 
L 317.323636 295.187273 
L 333.556364 295.282742 
L 349.789091 295.363216 
L 366.021818 295.430983 
L 382.254545 295.488 
" style="fill:none;stroke:#ff7f0e;stroke-linecap:square;stroke-width:1.5;"/>
   </g>
   <g id="line2d_16">
    <g clip-path="url(#p78fd4c1a26)">
     <use style="stroke:#000000;" x="398.487273" xlink:href="#md553f07251" y="196.596723"/>
    </g>
   </g>
   <g id="line2d_17">
    <path clip-path="url(#p78fd4c1a26)" d="M 73.832727 291.949208 
L 90.065455 291.949208 
L 106.298182 278.481784 
L 122.530909 266.094387 
L 138.763636 255.202132 
L 154.996364 245.905441 
L 171.229091 238.157558 
L 187.461818 231.82006 
L 203.694545 226.697956 
L 219.927273 222.574321 
L 236.16 219.242775 
L 252.392727 216.52882 
L 268.625455 214.296275 
L 284.858182 212.443186 
L 301.090909 210.893899 
L 317.323636 209.591543 
L 333.556364 208.492428 
L 349.789091 207.562182 
L 366.021818 206.773205 
L 382.254545 206.102998 
L 398.487273 205.533005 
" style="fill:none;stroke:#2ca02c;stroke-linecap:square;stroke-width:1.5;"/>
   </g>
   <g id="line2d_18">
    <path clip-path="url(#p78fd4c1a26)" d="M 73.832727 233.992644 
L 90.065455 263.188792 
L 106.298182 268.848474 
L 122.530909 272.941049 
L 138.763636 275.927232 
L 154.996364 278.081374 
L 171.229091 279.635202 
L 187.461818 280.789179 
L 203.694545 281.697355 
L 219.927273 282.457449 
L 236.16 283.118708 
L 252.392727 283.701123 
L 268.625455 284.212691 
L 284.858182 284.658675 
L 301.090909 285.044734 
L 317.323636 285.377173 
L 333.556364 285.662447 
L 349.789091 285.906727 
L 366.021818 286.115657 
L 382.254545 286.294247 
" style="fill:none;stroke:#d62728;stroke-linecap:square;stroke-width:1.5;"/>
   </g>
   <g id="line2d_19">
    <g clip-path="url(#p78fd4c1a26)">
     <use style="stroke:#000000;" x="398.487273" xlink:href="#md553f07251" y="148.920478"/>
    </g>
   </g>
   <g id="line2d_20">
    <path clip-path="url(#p78fd4c1a26)" d="M 73.832727 291.949208 
L 90.065455 291.949208 
L 106.298182 277.009911 
L 122.530909 259.848438 
L 138.763636 243.961396 
L 154.996364 229.805319 
L 171.229091 217.511901 
L 187.461818 207.069682 
L 203.694545 198.375509 
L 219.927273 191.25791 
L 236.16 185.49889 
L 252.392727 180.861578 
L 268.625455 177.119466 
L 284.858182 174.077634 
L 301.090909 171.580908 
L 317.323636 169.511421 
L 333.556364 167.781322 
L 349.789091 166.32498 
L 366.021818 165.092609 
L 382.254545 164.045661 
L 398.487273 163.153643 
" style="fill:none;stroke:#9467bd;stroke-linecap:square;stroke-width:1.5;"/>
   </g>
   <g id="line2d_21">
    <path clip-path="url(#p78fd4c1a26)" d="M 73.832727 204.723987 
L 90.065455 231.51721 
L 106.298182 244.814169 
L 122.530909 252.608489 
L 138.763636 258.827424 
L 154.996364 263.782091 
L 171.229091 267.650474 
L 187.461818 270.612852 
L 203.694545 272.861972 
L 219.927273 274.585934 
L 236.16 275.94479 
L 252.392727 277.054922 
L 268.625455 277.989198 
L 284.858182 278.789123 
L 301.090909 279.478683 
L 317.323636 280.073707 
L 333.556364 280.586615 
L 349.789091 281.028049 
L 366.021818 281.40754 
L 382.254545 281.73353 
" style="fill:none;stroke:#8c564b;stroke-linecap:square;stroke-width:1.5;"/>
   </g>
   <g id="line2d_22">
    <g clip-path="url(#p78fd4c1a26)">
     <use style="stroke:#000000;" x="398.487273" xlink:href="#md553f07251" y="101.244239"/>
    </g>
   </g>
   <g id="line2d_23">
    <path clip-path="url(#p78fd4c1a26)" d="M 73.832727 291.949208 
L 90.065455 291.949208 
L 106.298182 276.703001 
L 122.530909 253.46794 
L 138.763636 231.947255 
L 154.996364 212.541126 
L 171.229091 195.391285 
L 187.461818 180.528585 
L 203.694545 167.913249 
L 219.927273 157.443977 
L 236.16 148.956951 
L 252.392727 142.226552 
L 268.625455 136.978126 
L 284.858182 132.917173 
L 301.090909 129.766339 
L 317.323636 127.293384 
L 333.556364 125.320843 
L 349.789091 123.720696 
L 366.021818 122.40303 
L 382.254545 121.304746 
L 398.487273 120.380858 
" style="fill:none;stroke:#e377c2;stroke-linecap:square;stroke-width:1.5;"/>
   </g>
   <g id="line2d_24">
    <path clip-path="url(#p78fd4c1a26)" d="M 73.832727 183.537603 
L 90.065455 204.209052 
L 106.298182 225.799921 
L 122.530909 236.170713 
L 138.763636 245.303301 
L 154.996364 253.125719 
L 171.229091 259.585987 
L 187.461818 264.725265 
L 203.694545 268.666435 
L 219.927273 271.590357 
L 236.16 273.711709 
L 252.392727 275.250711 
L 268.625455 276.400588 
L 284.858182 277.30322 
L 301.090909 278.045802 
L 317.323636 278.675439 
L 333.556364 279.216706 
L 349.789091 279.684035 
L 366.021818 280.087592 
L 382.254545 280.43572 
" style="fill:none;stroke:#7f7f7f;stroke-linecap:square;stroke-width:1.5;"/>
   </g>
   <g id="line2d_25">
    <g clip-path="url(#p78fd4c1a26)">
     <use style="stroke:#000000;" x="398.487273" xlink:href="#md553f07251" y="53.568"/>
    </g>
   </g>
   <g id="line2d_26">
    <path clip-path="url(#p78fd4c1a26)" d="M 73.832727 291.949208 
L 90.065455 291.949208 
L 106.298182 276.618879 
L 122.530909 249.54778 
L 138.763636 223.995063 
L 154.996364 200.521168 
L 171.229091 179.338328 
L 187.461818 160.53316 
L 203.694545 144.125549 
L 219.927273 130.085805 
L 236.16 118.336095 
L 252.392727 108.744476 
L 268.625455 101.117725 
L 284.858182 95.201466 
L 301.090909 90.696805 
L 317.323636 87.294734 
L 333.556364 84.715073 
L 349.789091 82.73152 
L 366.021818 81.176457 
L 382.254545 79.932264 
L 398.487273 78.918365 
" style="fill:none;stroke:#bcbd22;stroke-linecap:square;stroke-width:1.5;"/>
   </g>
   <g id="line2d_27">
    <path clip-path="url(#p78fd4c1a26)" d="M 73.832727 169.330716 
L 90.065455 184.304613 
L 106.298182 206.64716 
L 122.530909 218.395081 
L 138.763636 229.520614 
L 154.996364 239.723133 
L 171.229091 248.696328 
L 187.461818 256.270635 
L 203.694545 262.416781 
L 219.927273 267.213922 
L 236.16 270.815619 
L 252.392727 273.42359 
L 268.625455 275.264745 
L 284.858182 276.563233 
L 301.090909 277.508614 
L 317.323636 278.235105 
L 333.556364 278.823136 
L 349.789091 279.315847 
L 366.021818 279.736014 
L 382.254545 280.096917 
" style="fill:none;stroke:#17becf;stroke-linecap:square;stroke-width:1.5;"/>
   </g>
   <g id="patch_3">
    <path d="M 57.6 307.584 
L 57.6 41.472 
" style="fill:none;stroke:#000000;stroke-linecap:square;stroke-linejoin:miter;stroke-width:0.8;"/>
   </g>
   <g id="patch_4">
    <path d="M 414.72 307.584 
L 414.72 41.472 
" style="fill:none;stroke:#000000;stroke-linecap:square;stroke-linejoin:miter;stroke-width:0.8;"/>
   </g>
   <g id="patch_5">
    <path d="M 57.6 307.584 
L 414.72 307.584 
" style="fill:none;stroke:#000000;stroke-linecap:square;stroke-linejoin:miter;stroke-width:0.8;"/>
   </g>
   <g id="patch_6">
    <path d="M 57.6 41.472 
L 414.72 41.472 
" style="fill:none;stroke:#000000;stroke-linecap:square;stroke-linejoin:miter;stroke-width:0.8;"/>
   </g>
  </g>
 </g>
 <defs>
  <clipPath id="p78fd4c1a26">
   <rect height="266.112" width="357.12" x="57.6" y="41.472"/>
  </clipPath>
 </defs>
</svg>
