<?xml version="1.0" encoding="utf-8" standalone="no"?>
<!DOCTYPE svg PUBLIC "-//W3C//DTD SVG 1.1//EN"
  "http://www.w3.org/Graphics/SVG/1.1/DTD/svg11.dtd">
<!-- Created with matplotlib (https://matplotlib.org/) -->
<svg height="345.6pt" version="1.1" viewBox="0 0 460.8 345.6" width="460.8pt" xmlns="http://www.w3.org/2000/svg" xmlns:xlink="http://www.w3.org/1999/xlink">
 <defs>
  <style type="text/css">
*{stroke-linecap:butt;stroke-linejoin:round;}
  </style>
 </defs>
 <g id="figure_1">
  <g id="patch_1">
   <path d="M 0 345.6 
L 460.8 345.6 
L 460.8 0 
L 0 0 
z
" style="fill:#ffffff;"/>
  </g>
  <g id="axes_1">
   <g id="patch_2">
    <path d="M 57.6 307.584 
L 414.72 307.584 
L 414.72 41.472 
L 57.6 41.472 
z
" style="fill:#ffffff;"/>
   </g>
   <g id="matplotlib.axis_1">
    <g id="xtick_1">
     <g id="line2d_1">
      <defs>
       <path d="M 0 0 
L 0 3.5 
" id="m34083795ef" style="stroke:#000000;stroke-width:0.8;"/>
      </defs>
      <g>
       <use style="stroke:#000000;stroke-width:0.8;" x="73.832727" xlink:href="#m34083795ef" y="307.584"/>
      </g>
     </g>
     <g id="text_1">
      <!-- 0.0 -->
      <defs>
       <path d="M 31.78125 66.40625 
Q 24.171875 66.40625 20.328125 58.90625 
Q 16.5 51.421875 16.5 36.375 
Q 16.5 21.390625 20.328125 13.890625 
Q 24.171875 6.390625 31.78125 6.390625 
Q 39.453125 6.390625 43.28125 13.890625 
Q 47.125 21.390625 47.125 36.375 
Q 47.125 51.421875 43.28125 58.90625 
Q 39.453125 66.40625 31.78125 66.40625 
z
M 31.78125 74.21875 
Q 44.046875 74.21875 50.515625 64.515625 
Q 56.984375 54.828125 56.984375 36.375 
Q 56.984375 17.96875 50.515625 8.265625 
Q 44.046875 -1.421875 31.78125 -1.421875 
Q 19.53125 -1.421875 13.0625 8.265625 
Q 6.59375 17.96875 6.59375 36.375 
Q 6.59375 54.828125 13.0625 64.515625 
Q 19.53125 74.21875 31.78125 74.21875 
z
" id="DejaVuSans-48"/>
       <path d="M 10.6875 12.40625 
L 21 12.40625 
L 21 0 
L 10.6875 0 
z
" id="DejaVuSans-46"/>
      </defs>
      <g transform="translate(65.881165 322.182437)scale(0.1 -0.1)">
       <use xlink:href="#DejaVuSans-48"/>
       <use x="63.623047" xlink:href="#DejaVuSans-46"/>
       <use x="95.410156" xlink:href="#DejaVuSans-48"/>
      </g>
     </g>
    </g>
    <g id="xtick_2">
     <g id="line2d_2">
      <g>
       <use style="stroke:#000000;stroke-width:0.8;" x="138.763636" xlink:href="#m34083795ef" y="307.584"/>
      </g>
     </g>
     <g id="text_2">
      <!-- 0.2 -->
      <defs>
       <path d="M 19.1875 8.296875 
L 53.609375 8.296875 
L 53.609375 0 
L 7.328125 0 
L 7.328125 8.296875 
Q 12.9375 14.109375 22.625 23.890625 
Q 32.328125 33.6875 34.8125 36.53125 
Q 39.546875 41.84375 41.421875 45.53125 
Q 43.3125 49.21875 43.3125 52.78125 
Q 43.3125 58.59375 39.234375 62.25 
Q 35.15625 65.921875 28.609375 65.921875 
Q 23.96875 65.921875 18.8125 64.3125 
Q 13.671875 62.703125 7.8125 59.421875 
L 7.8125 69.390625 
Q 13.765625 71.78125 18.9375 73 
Q 24.125 74.21875 28.421875 74.21875 
Q 39.75 74.21875 46.484375 68.546875 
Q 53.21875 62.890625 53.21875 53.421875 
Q 53.21875 48.921875 51.53125 44.890625 
Q 49.859375 40.875 45.40625 35.40625 
Q 44.1875 33.984375 37.640625 27.21875 
Q 31.109375 20.453125 19.1875 8.296875 
z
" id="DejaVuSans-50"/>
      </defs>
      <g transform="translate(130.812074 322.182437)scale(0.1 -0.1)">
       <use xlink:href="#DejaVuSans-48"/>
       <use x="63.623047" xlink:href="#DejaVuSans-46"/>
       <use x="95.410156" xlink:href="#DejaVuSans-50"/>
      </g>
     </g>
    </g>
    <g id="xtick_3">
     <g id="line2d_3">
      <g>
       <use style="stroke:#000000;stroke-width:0.8;" x="203.694545" xlink:href="#m34083795ef" y="307.584"/>
      </g>
     </g>
     <g id="text_3">
      <!-- 0.4 -->
      <defs>
       <path d="M 37.796875 64.3125 
L 12.890625 25.390625 
L 37.796875 25.390625 
z
M 35.203125 72.90625 
L 47.609375 72.90625 
L 47.609375 25.390625 
L 58.015625 25.390625 
L 58.015625 17.1875 
L 47.609375 17.1875 
L 47.609375 0 
L 37.796875 0 
L 37.796875 17.1875 
L 4.890625 17.1875 
L 4.890625 26.703125 
z
" id="DejaVuSans-52"/>
      </defs>
      <g transform="translate(195.742983 322.182437)scale(0.1 -0.1)">
       <use xlink:href="#DejaVuSans-48"/>
       <use x="63.623047" xlink:href="#DejaVuSans-46"/>
       <use x="95.410156" xlink:href="#DejaVuSans-52"/>
      </g>
     </g>
    </g>
    <g id="xtick_4">
     <g id="line2d_4">
      <g>
       <use style="stroke:#000000;stroke-width:0.8;" x="268.625455" xlink:href="#m34083795ef" y="307.584"/>
      </g>
     </g>
     <g id="text_4">
      <!-- 0.6 -->
      <defs>
       <path d="M 33.015625 40.375 
Q 26.375 40.375 22.484375 35.828125 
Q 18.609375 31.296875 18.609375 23.390625 
Q 18.609375 15.53125 22.484375 10.953125 
Q 26.375 6.390625 33.015625 6.390625 
Q 39.65625 6.390625 43.53125 10.953125 
Q 47.40625 15.53125 47.40625 23.390625 
Q 47.40625 31.296875 43.53125 35.828125 
Q 39.65625 40.375 33.015625 40.375 
z
M 52.59375 71.296875 
L 52.59375 62.3125 
Q 48.875 64.0625 45.09375 64.984375 
Q 41.3125 65.921875 37.59375 65.921875 
Q 27.828125 65.921875 22.671875 59.328125 
Q 17.53125 52.734375 16.796875 39.40625 
Q 19.671875 43.65625 24.015625 45.921875 
Q 28.375 48.1875 33.59375 48.1875 
Q 44.578125 48.1875 50.953125 41.515625 
Q 57.328125 34.859375 57.328125 23.390625 
Q 57.328125 12.15625 50.6875 5.359375 
Q 44.046875 -1.421875 33.015625 -1.421875 
Q 20.359375 -1.421875 13.671875 8.265625 
Q 6.984375 17.96875 6.984375 36.375 
Q 6.984375 53.65625 15.1875 63.9375 
Q 23.390625 74.21875 37.203125 74.21875 
Q 40.921875 74.21875 44.703125 73.484375 
Q 48.484375 72.75 52.59375 71.296875 
z
" id="DejaVuSans-54"/>
      </defs>
      <g transform="translate(260.673892 322.182437)scale(0.1 -0.1)">
       <use xlink:href="#DejaVuSans-48"/>
       <use x="63.623047" xlink:href="#DejaVuSans-46"/>
       <use x="95.410156" xlink:href="#DejaVuSans-54"/>
      </g>
     </g>
    </g>
    <g id="xtick_5">
     <g id="line2d_5">
      <g>
       <use style="stroke:#000000;stroke-width:0.8;" x="333.556364" xlink:href="#m34083795ef" y="307.584"/>
      </g>
     </g>
     <g id="text_5">
      <!-- 0.8 -->
      <defs>
       <path d="M 31.78125 34.625 
Q 24.75 34.625 20.71875 30.859375 
Q 16.703125 27.09375 16.703125 20.515625 
Q 16.703125 13.921875 20.71875 10.15625 
Q 24.75 6.390625 31.78125 6.390625 
Q 38.8125 6.390625 42.859375 10.171875 
Q 46.921875 13.96875 46.921875 20.515625 
Q 46.921875 27.09375 42.890625 30.859375 
Q 38.875 34.625 31.78125 34.625 
z
M 21.921875 38.8125 
Q 15.578125 40.375 12.03125 44.71875 
Q 8.5 49.078125 8.5 55.328125 
Q 8.5 64.0625 14.71875 69.140625 
Q 20.953125 74.21875 31.78125 74.21875 
Q 42.671875 74.21875 48.875 69.140625 
Q 55.078125 64.0625 55.078125 55.328125 
Q 55.078125 49.078125 51.53125 44.71875 
Q 48 40.375 41.703125 38.8125 
Q 48.828125 37.15625 52.796875 32.3125 
Q 56.78125 27.484375 56.78125 20.515625 
Q 56.78125 9.90625 50.3125 4.234375 
Q 43.84375 -1.421875 31.78125 -1.421875 
Q 19.734375 -1.421875 13.25 4.234375 
Q 6.78125 9.90625 6.78125 20.515625 
Q 6.78125 27.484375 10.78125 32.3125 
Q 14.796875 37.15625 21.921875 38.8125 
z
M 18.3125 54.390625 
Q 18.3125 48.734375 21.84375 45.5625 
Q 25.390625 42.390625 31.78125 42.390625 
Q 38.140625 42.390625 41.71875 45.5625 
Q 45.3125 48.734375 45.3125 54.390625 
Q 45.3125 60.0625 41.71875 63.234375 
Q 38.140625 66.40625 31.78125 66.40625 
Q 25.390625 66.40625 21.84375 63.234375 
Q 18.3125 60.0625 18.3125 54.390625 
z
" id="DejaVuSans-56"/>
      </defs>
      <g transform="translate(325.604801 322.182437)scale(0.1 -0.1)">
       <use xlink:href="#DejaVuSans-48"/>
       <use x="63.623047" xlink:href="#DejaVuSans-46"/>
       <use x="95.410156" xlink:href="#DejaVuSans-56"/>
      </g>
     </g>
    </g>
    <g id="xtick_6">
     <g id="line2d_6">
      <g>
       <use style="stroke:#000000;stroke-width:0.8;" x="398.487273" xlink:href="#m34083795ef" y="307.584"/>
      </g>
     </g>
     <g id="text_6">
      <!-- 1.0 -->
      <defs>
       <path d="M 12.40625 8.296875 
L 28.515625 8.296875 
L 28.515625 63.921875 
L 10.984375 60.40625 
L 10.984375 69.390625 
L 28.421875 72.90625 
L 38.28125 72.90625 
L 38.28125 8.296875 
L 54.390625 8.296875 
L 54.390625 0 
L 12.40625 0 
z
" id="DejaVuSans-49"/>
      </defs>
      <g transform="translate(390.53571 322.182437)scale(0.1 -0.1)">
       <use xlink:href="#DejaVuSans-49"/>
       <use x="63.623047" xlink:href="#DejaVuSans-46"/>
       <use x="95.410156" xlink:href="#DejaVuSans-48"/>
      </g>
     </g>
    </g>
   </g>
   <g id="matplotlib.axis_2">
    <g id="ytick_1">
     <g id="line2d_7">
      <defs>
       <path d="M 0 0 
L -3.5 0 
" id="mdaa4d95084" style="stroke:#000000;stroke-width:0.8;"/>
      </defs>
      <g>
       <use style="stroke:#000000;stroke-width:0.8;" x="57.6" xlink:href="#mdaa4d95084" y="266.9566"/>
      </g>
     </g>
     <g id="text_7">
      <!-- 0.0 -->
      <g transform="translate(34.696875 270.755818)scale(0.1 -0.1)">
       <use xlink:href="#DejaVuSans-48"/>
       <use x="63.623047" xlink:href="#DejaVuSans-46"/>
       <use x="95.410156" xlink:href="#DejaVuSans-48"/>
      </g>
     </g>
    </g>
    <g id="ytick_2">
     <g id="line2d_8">
      <g>
       <use style="stroke:#000000;stroke-width:0.8;" x="57.6" xlink:href="#mdaa4d95084" y="224.27888"/>
      </g>
     </g>
     <g id="text_8">
      <!-- 0.2 -->
      <g transform="translate(34.696875 228.078098)scale(0.1 -0.1)">
       <use xlink:href="#DejaVuSans-48"/>
       <use x="63.623047" xlink:href="#DejaVuSans-46"/>
       <use x="95.410156" xlink:href="#DejaVuSans-50"/>
      </g>
     </g>
    </g>
    <g id="ytick_3">
     <g id="line2d_9">
      <g>
       <use style="stroke:#000000;stroke-width:0.8;" x="57.6" xlink:href="#mdaa4d95084" y="181.60116"/>
      </g>
     </g>
     <g id="text_9">
      <!-- 0.4 -->
      <g transform="translate(34.696875 185.400378)scale(0.1 -0.1)">
       <use xlink:href="#DejaVuSans-48"/>
       <use x="63.623047" xlink:href="#DejaVuSans-46"/>
       <use x="95.410156" xlink:href="#DejaVuSans-52"/>
      </g>
     </g>
    </g>
    <g id="ytick_4">
     <g id="line2d_10">
      <g>
       <use style="stroke:#000000;stroke-width:0.8;" x="57.6" xlink:href="#mdaa4d95084" y="138.92344"/>
      </g>
     </g>
     <g id="text_10">
      <!-- 0.6 -->
      <g transform="translate(34.696875 142.722659)scale(0.1 -0.1)">
       <use xlink:href="#DejaVuSans-48"/>
       <use x="63.623047" xlink:href="#DejaVuSans-46"/>
       <use x="95.410156" xlink:href="#DejaVuSans-54"/>
      </g>
     </g>
    </g>
    <g id="ytick_5">
     <g id="line2d_11">
      <g>
       <use style="stroke:#000000;stroke-width:0.8;" x="57.6" xlink:href="#mdaa4d95084" y="96.24572"/>
      </g>
     </g>
     <g id="text_11">
      <!-- 0.8 -->
      <g transform="translate(34.696875 100.044939)scale(0.1 -0.1)">
       <use xlink:href="#DejaVuSans-48"/>
       <use x="63.623047" xlink:href="#DejaVuSans-46"/>
       <use x="95.410156" xlink:href="#DejaVuSans-56"/>
      </g>
     </g>
    </g>
    <g id="ytick_6">
     <g id="line2d_12">
      <g>
       <use style="stroke:#000000;stroke-width:0.8;" x="57.6" xlink:href="#mdaa4d95084" y="53.568"/>
      </g>
     </g>
     <g id="text_12">
      <!-- 1.0 -->
      <g transform="translate(34.696875 57.367219)scale(0.1 -0.1)">
       <use xlink:href="#DejaVuSans-49"/>
       <use x="63.623047" xlink:href="#DejaVuSans-46"/>
       <use x="95.410156" xlink:href="#DejaVuSans-48"/>
      </g>
     </g>
    </g>
   </g>
   <g id="line2d_13">
    <defs>
     <path d="M -3 3 
L 3 -3 
M -3 -3 
L 3 3 
" id="m5752ccef84" style="stroke:#000000;"/>
    </defs>
    <g clip-path="url(#p3b24015743)">
     <use style="stroke:#000000;" x="398.487273" xlink:href="#m5752ccef84" y="224.278879"/>
    </g>
   </g>
   <g id="line2d_14">
    <path clip-path="url(#p3b24015743)" d="M 73.832727 266.9566 
L 90.065455 266.9566 
L 106.298182 258.514294 
L 122.530909 252.324886 
L 138.763636 247.753957 
L 154.996364 244.139805 
L 171.229091 241.151697 
L 187.461818 238.665209 
L 203.694545 236.600481 
L 219.927273 234.890793 
L 236.16 233.47899 
L 252.392727 232.316153 
L 268.625455 231.360588 
L 284.858182 230.576951 
L 301.090909 229.935442 
L 317.323636 229.411081 
L 333.556364 228.983021 
L 349.789091 228.633956 
L 366.021818 228.349567 
L 382.254545 228.118044 
L 398.487273 227.929673 
" style="fill:none;stroke:#1f77b4;stroke-linecap:square;stroke-width:1.5;"/>
   </g>
   <g id="line2d_15">
    <path clip-path="url(#p3b24015743)" d="M 73.832727 258.663819 
L 90.065455 295.488 
L 106.298182 289.564399 
L 122.530909 285.342191 
L 138.763636 283.327021 
L 154.996364 282.342978 
L 171.229091 281.624704 
L 187.461818 281.028253 
L 203.694545 280.527718 
L 219.927273 280.10817 
L 236.16 279.757467 
L 252.392727 279.465289 
L 268.625455 279.222695 
L 284.858182 279.021929 
L 301.090909 278.856277 
L 317.323636 278.719969 
L 333.556364 278.608062 
L 349.789091 278.516368 
L 366.021818 278.44137 
L 382.254545 278.380112 
" style="fill:none;stroke:#ff7f0e;stroke-linecap:square;stroke-width:1.5;"/>
   </g>
   <g id="line2d_16">
    <g clip-path="url(#p3b24015743)">
     <use style="stroke:#000000;" x="398.487273" xlink:href="#m5752ccef84" y="181.601158"/>
    </g>
   </g>
   <g id="line2d_17">
    <path clip-path="url(#p3b24015743)" d="M 73.832727 266.9566 
L 90.065455 266.9566 
L 106.298182 254.968778 
L 122.530909 244.271783 
L 138.763636 234.986157 
L 154.996364 227.030596 
L 171.229091 220.255547 
L 187.461818 214.506546 
L 203.694545 209.649035 
L 219.927273 205.569489 
L 236.16 202.169242 
L 252.392727 199.359403 
L 268.625455 197.058272 
L 284.858182 195.190633 
L 301.090909 193.687883 
L 317.323636 192.48846 
L 333.556364 191.538138 
L 349.789091 190.79008 
L 366.021818 190.204569 
L 382.254545 189.748499 
L 398.487273 189.394702 
" style="fill:none;stroke:#2ca02c;stroke-linecap:square;stroke-width:1.5;"/>
   </g>
   <g id="line2d_18">
    <path clip-path="url(#p3b24015743)" d="M 73.832727 231.78473 
L 90.065455 280.246476 
L 106.298182 280.333305 
L 122.530909 279.211542 
L 138.763636 277.821384 
L 154.996364 276.558884 
L 171.229091 275.516082 
L 187.461818 274.653731 
L 203.694545 273.914461 
L 219.927273 273.260656 
L 236.16 272.674285 
L 252.392727 272.148708 
L 268.625455 271.682147 
L 284.858182 271.273901 
L 301.090909 270.922443 
L 317.323636 270.624844 
L 333.556364 270.376792 
L 349.789091 270.173006 
L 366.021818 270.007738 
L 382.254545 269.875183 
" style="fill:none;stroke:#d62728;stroke-linecap:square;stroke-width:1.5;"/>
   </g>
   <g id="line2d_19">
    <g clip-path="url(#p3b24015743)">
     <use style="stroke:#000000;" x="398.487273" xlink:href="#m5752ccef84" y="138.923435"/>
    </g>
   </g>
   <g id="line2d_20">
    <path clip-path="url(#p3b24015743)" d="M 73.832727 266.9566 
L 90.065455 266.9566 
L 106.298182 254.104638 
L 122.530909 238.529968 
L 138.763636 224.613546 
L 154.996364 212.40817 
L 171.229091 201.816743 
L 187.461818 192.685757 
L 203.694545 184.855379 
L 219.927273 178.181726 
L 236.16 172.540018 
L 252.392727 167.819786 
L 268.625455 163.919183 
L 284.858182 160.741137 
L 301.090909 158.191667 
L 317.323636 156.179987 
L 333.556364 154.61969 
L 349.789091 153.430518 
L 366.021818 152.539988 
L 382.254545 151.884619 
L 398.487273 151.410456 
" style="fill:none;stroke:#9467bd;stroke-linecap:square;stroke-width:1.5;"/>
   </g>
   <g id="line2d_21">
    <path clip-path="url(#p3b24015743)" d="M 73.832727 210.294395 
L 90.065455 253.917669 
L 106.298182 271.43538 
L 122.530909 271.547845 
L 138.763636 270.672193 
L 154.996364 269.61041 
L 171.229091 268.709365 
L 187.461818 268.030489 
L 203.694545 267.51005 
L 219.927273 267.066261 
L 236.16 266.64126 
L 252.392727 266.206609 
L 268.625455 265.756625 
L 284.858182 265.299811 
L 301.090909 264.851416 
L 317.323636 264.427754 
L 333.556364 264.042537 
L 349.789091 263.704953 
L 366.021818 263.419184 
L 382.254545 263.184984 
" style="fill:none;stroke:#8c564b;stroke-linecap:square;stroke-width:1.5;"/>
   </g>
   <g id="line2d_22">
    <g clip-path="url(#p3b24015743)">
     <use style="stroke:#000000;" x="398.487273" xlink:href="#m5752ccef84" y="96.245717"/>
    </g>
   </g>
   <g id="line2d_23">
    <path clip-path="url(#p3b24015743)" d="M 73.832727 266.9566 
L 90.065455 266.9566 
L 106.298182 253.875864 
L 122.530909 232.193711 
L 138.763636 212.869429 
L 154.996364 195.912491 
L 171.229091 181.215895 
L 187.461818 168.600418 
L 203.694545 157.853114 
L 219.927273 148.760755 
L 236.16 141.128418 
L 252.392727 134.783556 
L 268.625455 129.572551 
L 284.858182 125.355429 
L 301.090909 122.001531 
L 317.323636 119.387138 
L 333.556364 117.39493 
L 349.789091 115.914991 
L 366.021818 114.846536 
L 382.254545 114.099704 
L 398.487273 113.596886 
" style="fill:none;stroke:#e377c2;stroke-linecap:square;stroke-width:1.5;"/>
   </g>
   <g id="line2d_24">
    <path clip-path="url(#p3b24015743)" d="M 73.832727 194.351831 
L 90.065455 228.181858 
L 106.298182 267.713362 
L 122.530909 267.765064 
L 138.763636 266.48075 
L 154.996364 264.862785 
L 171.229091 263.508846 
L 187.461818 262.591845 
L 203.694545 262.030578 
L 219.927273 261.670042 
L 236.16 261.378047 
L 252.392727 261.071778 
L 268.625455 260.713551 
L 284.858182 260.298327 
L 301.090909 259.84137 
L 317.323636 259.367676 
L 333.556364 258.904017 
L 349.789091 258.473509 
L 366.021818 258.092676 
L 382.254545 257.770699 
" style="fill:none;stroke:#7f7f7f;stroke-linecap:square;stroke-width:1.5;"/>
   </g>
   <g id="line2d_25">
    <g clip-path="url(#p3b24015743)">
     <use style="stroke:#000000;" x="398.487273" xlink:href="#m5752ccef84" y="53.568"/>
    </g>
   </g>
   <g id="line2d_26">
    <path clip-path="url(#p3b24015743)" d="M 73.832727 266.9566 
L 90.065455 266.9566 
L 106.298182 253.799608 
L 122.530909 229.056499 
L 138.763636 206.288612 
L 154.996364 185.730493 
L 171.229091 167.401307 
L 187.461818 151.234362 
L 203.694545 137.125395 
L 219.927273 124.953142 
L 236.16 114.585441 
L 252.392727 105.879751 
L 268.625455 98.683533 
L 284.858182 92.836593 
L 301.090909 88.175046 
L 317.323636 84.535798 
L 333.556364 81.76079 
L 349.789091 79.700638 
L 366.021818 78.21771 
L 382.254545 77.188607 
L 398.487273 76.505828 
" style="fill:none;stroke:#bcbd22;stroke-linecap:square;stroke-width:1.5;"/>
   </g>
   <g id="line2d_27">
    <path clip-path="url(#p3b24015743)" d="M 73.832727 182.990996 
L 90.065455 207.123039 
L 106.298182 251.844951 
L 122.530909 254.325599 
L 138.763636 255.052282 
L 154.996364 255.187466 
L 171.229091 255.331489 
L 187.461818 255.641043 
L 203.694545 256.03779 
L 219.927273 256.39083 
L 236.16 256.603473 
L 252.392727 256.6319 
L 268.625455 256.475369 
L 284.858182 256.16061 
L 301.090909 255.728511 
L 317.323636 255.22474 
L 333.556364 254.693263 
L 349.789091 254.172007 
L 366.021818 253.690108 
L 382.254545 253.266968 
" style="fill:none;stroke:#17becf;stroke-linecap:square;stroke-width:1.5;"/>
   </g>
   <g id="patch_3">
    <path d="M 57.6 307.584 
L 57.6 41.472 
" style="fill:none;stroke:#000000;stroke-linecap:square;stroke-linejoin:miter;stroke-width:0.8;"/>
   </g>
   <g id="patch_4">
    <path d="M 414.72 307.584 
L 414.72 41.472 
" style="fill:none;stroke:#000000;stroke-linecap:square;stroke-linejoin:miter;stroke-width:0.8;"/>
   </g>
   <g id="patch_5">
    <path d="M 57.6 307.584 
L 414.72 307.584 
" style="fill:none;stroke:#000000;stroke-linecap:square;stroke-linejoin:miter;stroke-width:0.8;"/>
   </g>
   <g id="patch_6">
    <path d="M 57.6 41.472 
L 414.72 41.472 
" style="fill:none;stroke:#000000;stroke-linecap:square;stroke-linejoin:miter;stroke-width:0.8;"/>
   </g>
  </g>
 </g>
 <defs>
  <clipPath id="p3b24015743">
   <rect height="266.112" width="357.12" x="57.6" y="41.472"/>
  </clipPath>
 </defs>
</svg>
